<svg width="21" height="21" viewBox="0 0 21 21" fill="none" xmlns="http://www.w3.org/2000/svg">
<g clip-path="url(#clip0)">
<path d="M13.9886 15.3889C13.5211 14.9365 13.1047 14.5279 12.681 14.1265C8.6926 17.1475 3.87872 15.6224 1.70189 12.8495C-0.737921 9.74824 -0.533386 5.32617 2.1767 2.57515C5.09863 -0.387486 9.36464 -0.664778 12.6883 1.86733C15.4788 3.9981 17.0055 8.8361 13.9813 12.8276C14.3904 13.2509 14.7921 13.6668 15.2523 14.1338C15.4496 13.9149 15.6249 13.6814 15.8367 13.4844C16.2531 13.0976 16.7279 13.0757 17.1077 13.4552C18.1523 14.4914 19.2188 15.513 20.205 16.6003C21.1181 17.6073 21.0085 19.1834 20.0516 20.1394C19.0435 21.1537 17.4876 21.285 16.4576 20.351C15.3692 19.3659 14.3465 18.3005 13.3092 17.257C12.9294 16.8703 12.9513 16.3959 13.3385 15.9873C13.5284 15.7684 13.7621 15.5933 13.9886 15.3889ZM13.8863 8.01152C13.9155 4.68403 11.2347 1.97679 7.88176 1.9549C4.52885 1.92571 1.82607 4.58187 1.78955 7.91666C1.75302 11.2952 4.41928 14.0098 7.80141 14.039C11.147 14.0609 13.8571 11.3755 13.8863 8.01152ZM15.2012 16.6659C15.9536 17.4321 16.7133 18.2275 17.5022 19.001C17.8674 19.3586 18.4153 19.3075 18.7879 18.9499C19.1604 18.5924 19.2261 18.0597 18.8609 17.6802C18.0866 16.8775 17.2758 16.1259 16.5014 15.3743C16.0778 15.7903 15.6322 16.2354 15.2012 16.6659Z" fill="#6C9EBE"/>
</g>
<defs>
<clipPath id="clip0">
<rect width="20.8333" height="20.8333" fill="white" transform="translate(0 0.145874)"/>
</clipPath>
</defs>
</svg>
