<svg width="142" height="102" viewBox="0 0 142 102" fill="none" xmlns="http://www.w3.org/2000/svg">
<g clip-path="url(#clip0)" filter="url(#filter0_d)">
<path d="M43.7541 9.46022C43.7541 6.72616 43.6508 4.3425 43.8199 1.97729C43.8669 1.29032 44.6891 0.65406 45.1543 -0.00524902C45.5818 0.663282 46.3289 1.31337 46.3712 2.00495C46.5262 4.36556 46.4276 6.73538 46.4276 9.33113C47.4283 9.37723 48.2553 9.451 49.0869 9.451C55.0351 9.46022 60.9834 9.4925 66.9316 9.43717C68.717 9.41873 69.4359 10.0135 69.4124 11.8531C69.3279 18.1465 69.3795 24.4445 69.3795 31.1437C70.385 30.7149 71.1978 30.3968 71.9872 30.0233C85.1616 23.8313 98.3314 17.6347 111.506 11.4382C111.999 11.2076 112.507 10.7835 112.991 10.8019C113.709 10.8296 114.414 11.1753 115.128 11.3828C114.804 11.973 114.63 12.849 114.128 13.1118C111.294 14.5733 108.377 15.8827 105.492 17.2474C105.074 17.4457 104.67 17.6716 104.059 17.9851C122.345 29.3686 129.98 45.6854 127.744 66.8847C129.764 67.272 131.728 67.6823 133.701 68.0189C134.467 68.148 135.336 67.9174 136.022 68.1895C136.755 68.4753 137.329 69.1531 137.972 69.6602C137.31 70.0337 136.582 70.8037 135.999 70.7114C132.325 70.1213 128.547 69.7202 125.056 68.5399C118.586 66.3499 112.093 65.8289 105.783 68.2725C96.6447 71.8088 87.8539 71.2555 78.8375 67.9267C73.3403 65.898 67.5424 66.1977 62.0593 68.2033C55.1244 70.7437 48.1895 71.7488 40.9398 69.7709C37.1152 68.7289 33.2907 67.2858 29.3957 67.0092C25.6792 66.7418 21.8405 67.5993 18.1006 68.2402C14.1257 68.9179 10.2213 69.983 6.25576 70.7068C5.60737 70.8267 4.78514 70.0383 4.04749 69.6695C4.76635 69.1531 5.41474 68.3508 6.20878 68.171C10.7334 67.1475 15.2956 66.2715 20.0128 65.3125C18.4811 55.9116 16.5877 47.3313 10.9871 40.0605C9.71382 38.4099 10.0286 37.5662 11.7436 36.6994C14.1069 35.5053 16.3668 34.1221 18.749 32.9648C20.3182 32.2041 21.0089 31.2912 20.9572 29.4378C20.8022 23.6792 20.9995 17.916 20.8492 12.1574C20.7928 9.93972 21.6667 9.40028 23.7246 9.43717C29.4379 9.52938 35.1513 9.46944 40.8646 9.46944C41.7197 9.46022 42.5654 9.46022 43.7541 9.46022ZM72.3161 45.0491C72.0107 44.8693 71.3623 44.4636 70.6904 44.0993C63.2339 40.0559 55.7023 36.1415 48.3539 31.9136C45.9295 30.5166 44.177 30.6181 41.8137 31.969C34.3196 36.2522 26.6612 40.2587 19.1107 44.4497C18.4952 44.7909 17.7294 45.8652 17.8703 46.3723C19.5289 52.2508 21.3519 58.0878 23.2219 64.2336C23.2924 64.2336 23.8233 64.2705 24.3542 64.229C29.9172 63.8048 35.1889 64.8514 40.4135 66.7602C46.0752 68.8303 51.9154 68.6229 57.6898 66.8755C60.5229 66.0179 63.3937 65.271 66.1987 64.3351C66.8377 64.123 67.5941 63.4268 67.7633 62.809C69.3091 57.055 70.7421 51.2641 72.3161 45.0491ZM66.4806 30.1708C66.4806 24.0157 66.4806 18.1696 66.4806 12.3372C52.1127 12.3372 37.9234 12.3372 23.7528 12.3372C23.7528 18.3033 23.7528 24.0895 23.7528 30.1432C24.669 29.6683 25.3503 29.3317 26.0175 28.9721C31.7637 25.8554 37.5287 22.7709 43.2326 19.585C44.6281 18.8058 45.7322 18.8243 47.1088 19.6034C51.2341 21.9456 55.4298 24.1725 59.5973 26.4409C61.8291 27.6535 64.0656 28.8614 66.4806 30.1708ZM93.0034 23.1259C85.7865 26.5193 78.9785 29.719 71.8509 33.0755C74.3787 34.4679 76.5823 35.7312 78.8375 36.9069C80.3034 37.6676 80.435 38.4698 79.4859 39.8207C78.0341 41.8955 76.6058 44.021 75.4969 46.2847C72.7483 51.8866 71.273 57.8618 70.385 63.9893C72.645 64.2106 74.6794 64.2982 76.6668 64.6394C78.0952 64.8883 78.9362 64.5333 79.7725 63.3438C83.9823 57.3547 87.0034 50.8446 89.1553 43.9011C91.2086 37.2757 92.5946 30.5489 93.0034 23.1259ZM16.2306 42.9421C25.3033 38.0134 34.1317 33.2645 42.9037 28.4142C44.52 27.5198 45.8074 27.5059 47.433 28.405C55.5943 32.9233 63.8166 37.3403 72.0201 41.7848C72.6778 42.1445 73.3638 42.4534 74.1062 42.8222C75.0318 41.3791 75.8446 40.1112 76.7279 38.728C66.4148 33.1493 56.3131 27.6489 46.1551 22.2637C45.4879 21.9087 44.2005 22.1669 43.4394 22.5726C34.1129 27.552 24.8241 32.6098 15.5352 37.6584C14.8915 38.0088 14.2901 38.4376 13.6182 38.8663C14.5344 40.291 15.3144 41.5082 16.2306 42.9421ZM123.078 44.5143C119.587 34.9981 113.709 27.7088 105.262 22.3698C108.71 28.1514 111.539 34.1405 113.263 40.6137C113.381 41.061 114.038 41.5174 114.546 41.6972C117.252 42.6424 119.987 43.5046 123.078 44.5143ZM99.1114 20.1844C100.314 26.9942 101.517 33.804 102.743 40.7521C104.999 40.7521 107.545 40.7521 110.388 40.7521C108.297 33.0063 104.717 26.2334 99.1114 20.1844ZM97.5703 58.5811C90.8891 61.2736 90.8891 61.2737 89.7849 58.89C85.6879 59.6369 83.1037 62.0897 81.3277 66.396C85.2462 67 88.9063 67.6178 92.5805 68.0834C93.1913 68.1618 94.2907 67.7284 94.4787 67.2628C95.5593 64.6025 96.4332 61.8546 97.5703 58.5811ZM114.297 43.9564C114.579 53.1867 117.628 56.1559 125.507 57.304C125.099 54.5054 124.751 51.8174 124.286 49.1479C124.211 48.7191 123.698 48.2258 123.261 48.0183C120.414 46.6812 117.534 45.4087 114.297 43.9564ZM109.744 51.6053C105.68 50.3282 102.057 51.7621 98.5569 54.0581C97.6454 54.6575 96.4802 54.888 95.0378 55.4321C95.0566 55.3768 94.9016 55.8701 94.5539 56.9997C97.1333 54.3624 98.4395 56.783 99.9148 57.599C103.194 59.4064 106.46 60.3054 109.739 59.1205C109.744 56.5755 109.744 54.2656 109.744 51.6053ZM99.2523 41.4298C99.8772 36.455 98.073 25.8692 96.203 22.7432C95.0002 29.5853 93.7551 36.6625 92.5241 43.6705C94.6337 42.9651 96.9595 42.1952 99.2523 41.4298ZM114.649 63.8602C118.215 64.3765 121.626 64.8699 125.037 65.3586C125.86 60.3146 125.86 60.3146 121.406 59.1205C115.232 57.4653 115.18 57.5022 114.649 63.8602ZM92.0731 55.2984C91.4529 54.1319 90.9032 53.136 90.3957 52.1217C89.6346 50.591 90.3299 49.8026 91.8663 50.0331C93.1349 50.2221 94.4599 50.697 95.5311 51.384C97.3025 52.5228 98.4677 51.3978 98.8342 50.2452C99.4074 48.4517 99.304 46.4461 99.5389 44.0302C97.0346 45.0537 95.066 45.7591 93.1913 46.6628C92.1858 47.1469 90.9595 47.7739 90.4991 48.6684C89.207 51.1673 88.2579 53.8414 87.041 56.7645C88.8311 56.2389 90.3534 55.7963 92.0731 55.2984ZM97.7065 67.8806C102.48 66.4974 107.066 65.165 111.821 63.7864C111.905 63.081 111.999 62.2465 112.135 61.0984C107.667 63.1455 103.706 62.0252 99.7645 60.6651C99.0221 62.892 98.3173 64.9851 97.6266 67.0876C97.5844 67.2167 97.6501 67.3826 97.7065 67.8806ZM111.938 48.9496C112.013 43.855 111.553 43.3847 106.211 43.4631C105.276 43.4769 104.317 43.4262 103.41 43.6152C102.945 43.712 102.288 44.2284 102.222 44.6295C101.996 46.1095 101.982 47.6172 101.898 48.9496C105.332 48.9496 108.551 48.9496 111.938 48.9496ZM113.324 52.947C113.047 53.0622 112.774 53.1821 112.497 53.2974C112.497 54.6252 112.497 55.9485 112.497 57.9817C113.794 56.7922 114.546 56.1052 115.307 55.4044C114.55 54.4685 113.935 53.7077 113.324 52.947Z" fill="#242222"/>
<path d="M82.6944 79.7765C85.584 83.1607 81.299 84.1012 80.5331 86.8307C83.9348 87.5868 87.3741 88.9377 90.8227 88.9607C94.8822 88.9884 99.1296 88.3982 102.973 87.1303C110.786 84.5484 118.37 84.3594 126.174 86.9782C129.317 88.034 132.7 88.389 135.942 89.1774C136.689 89.3572 137.319 90.0073 138.005 90.4407C137.328 90.8603 136.581 91.7225 135.984 91.6302C132.31 91.0493 128.523 90.6574 125.051 89.4448C118.177 87.0473 111.487 86.8445 104.702 89.5094C96.7757 92.6215 88.8259 92.6353 80.9513 89.3849C79.039 88.5965 77.6248 88.5965 75.8112 89.8598C69.2897 94.4012 62.1152 94.9406 54.5507 92.7691C52.4881 92.1743 50.2939 92.0129 48.1467 91.7132C46.3707 91.4643 44.5383 91.4919 42.8092 91.0724C40.0606 90.4084 37.453 89.8321 34.5869 90.8326C32.5666 91.538 32.0122 90.6989 32.5149 88.0524C27.5862 87.3701 22.7562 87.2318 18.039 89.1313C14.1816 90.6851 10.2348 91.9576 5.99214 91.6487C5.30147 91.598 4.66248 90.8372 4 90.4038C4.6202 89.9843 5.18401 89.348 5.86529 89.1866C9.26227 88.3706 12.7579 87.9003 16.0891 86.8906C21.4125 85.2815 26.7358 84.4701 32.2753 85.3922C34.0607 85.6918 36.6167 83.0269 35.9683 81.3441C35.3058 79.629 34.6057 77.8954 32.1109 77.545C26.6184 76.775 21.4313 77.4436 16.2066 79.2371C13.0069 80.3344 9.54418 80.7447 6.16599 81.2427C5.527 81.3349 4.72826 80.3851 4.0047 79.9194C4.70007 79.486 5.34376 78.836 6.10491 78.6561C9.57237 77.8309 13.162 77.4067 16.5402 76.337C21.5581 74.7464 26.5808 74.0456 32.0827 74.9031C31.9511 72.6209 33.3325 72.3812 34.9534 73.0128C37.8759 74.147 40.7278 75.4426 44.0543 76.8626C47.705 74.2208 52.2296 71.6988 57.4543 70.6061C63.9617 69.246 69.8254 70.6015 75.6608 73.7643C84.1885 78.3887 93.2941 80.5096 102.87 76.7612C110.81 73.6537 118.647 73.6767 126.644 76.6552C129.515 77.7248 132.714 77.9231 135.726 78.6515C136.543 78.8498 137.239 79.5321 137.991 79.9886C137.243 80.4358 136.421 81.3441 135.754 81.2473C132.451 80.7678 129.035 80.4266 125.939 79.297C118.468 76.5722 111.191 76.4661 103.762 79.3477C96.9072 82.0034 89.8925 82.0449 82.6944 79.7765ZM71.4134 74.0548C68.4816 73.543 65.9209 72.7777 63.3368 72.7039C56.5475 72.5103 50.7214 75.2351 45.5015 79.2325C43.7818 80.5511 42.7012 80.9338 41.1084 79.025C40.0465 77.7525 38.3034 77.0286 36.8704 76.0558C36.5133 76.2218 36.1562 76.3877 35.7991 76.5537C40.5493 80.2376 38.5853 83.8799 36.3677 87.702C38.3786 86.886 40.2298 86.0607 41.644 84.779C42.9314 83.6079 43.6503 83.8246 45.0128 84.6176C48.5461 86.6739 52.1075 88.8224 55.9226 90.2425C60.9547 92.1143 66.1418 91.8239 71.1973 89.3757C68.1574 84.4009 68.1762 79.4538 71.4134 74.0548ZM81.0781 81.902C78.4705 79.6336 76.1965 77.651 73.8801 75.6408C70.8919 79.8088 70.9248 84.4793 73.96 88.1862C76.2011 86.2036 78.4282 84.2395 81.0781 81.902Z" fill="#242222"/>
</g>
<defs>
<filter id="filter0_d" x="0" y="0" width="142" height="102" filterUnits="userSpaceOnUse" color-interpolation-filters="sRGB">
<feFlood flood-opacity="0" result="BackgroundImageFix"/>
<feColorMatrix in="SourceAlpha" type="matrix" values="0 0 0 0 0 0 0 0 0 0 0 0 0 0 0 0 0 0 127 0"/>
<feOffset dy="4"/>
<feGaussianBlur stdDeviation="2"/>
<feColorMatrix type="matrix" values="0 0 0 0 0 0 0 0 0 0 0 0 0 0 0 0 0 0 0.25 0"/>
<feBlend mode="normal" in2="BackgroundImageFix" result="effect1_dropShadow"/>
<feBlend mode="normal" in="SourceGraphic" in2="effect1_dropShadow" result="shape"/>
</filter>
<clipPath id="clip0">
<rect width="134" height="94" fill="white" transform="translate(4)"/>
</clipPath>
</defs>
</svg>
