<svg width="26" height="25" viewBox="0 0 26 25" fill="none" xmlns="http://www.w3.org/2000/svg">
<path d="M2.88469 24.4436C1.94388 24.5179 1.11661 24.2065 0.575953 23.3943C0.316325 23.0048 0.0855452 22.5125 0.0622811 22.0545C-0.00658074 20.7099 -0.0261226 19.3549 0.0511143 18.0113C0.130212 16.6277 1.24038 15.6479 2.60272 15.6107C2.86421 15.6031 3.12477 15.6098 3.42441 15.6098C3.43837 15.4479 3.46071 15.3117 3.46071 15.1746C3.46257 13.414 3.45326 11.6523 3.46908 9.89166C3.47187 9.52695 3.37137 9.38507 3.00194 9.29937C1.25992 8.89562 0.0781007 7.36063 0.0297113 5.47426C0.00737774 4.58583 0.0129611 3.6974 0.0287807 2.80897C0.0511143 1.51108 0.947249 0.60932 2.22585 0.608368C9.38934 0.603607 16.5519 0.603607 23.7154 0.608368C25.0135 0.60932 25.8008 1.3692 25.9227 2.89848C26.0223 4.14019 26.0883 5.41142 25.7245 6.62741C25.2908 8.07861 24.2961 8.96133 22.8639 9.32508C22.6564 9.37745 22.4796 9.39364 22.4805 9.68598C22.488 11.6361 22.4843 13.5863 22.4843 15.6307C22.8993 15.6307 23.2566 15.5917 23.6028 15.6384C24.7325 15.7888 25.9246 16.5468 25.9469 18.5712C25.9599 19.7434 25.946 20.9175 25.8762 22.0869C25.7989 23.3695 24.8163 24.3122 23.5395 24.436C23.1961 24.4693 22.7336 24.4065 22.5485 24.6055L2.88469 24.4436ZM20.1923 24.4427C18.146 24.4674 16.0987 24.4532 14.0524 24.4532C11.2923 24.4532 8.53229 24.4617 5.77316 24.4436L20.1923 24.4427ZM5.20366 15.5746C10.4111 15.5746 15.5599 15.5746 20.7413 15.5746C20.7413 13.4958 20.7422 11.4524 20.7367 9.40888C20.7367 9.32603 20.6948 9.20891 20.6334 9.16701C20.0862 8.7985 19.5316 8.44331 18.9695 8.07861C16.9753 9.90594 14.956 9.89737 12.9636 8.01005C10.9313 9.91927 8.9194 9.90023 6.98848 8.06433C6.43293 8.42808 5.91089 8.75946 5.40373 9.11083C5.30788 9.17748 5.21296 9.32889 5.21296 9.4422C5.20086 11.4705 5.20366 13.4987 5.20366 15.5746ZM12.9999 2.35952C9.48147 2.35952 5.963 2.35857 2.44453 2.36047C1.83501 2.36047 1.74847 2.44332 1.74474 3.02703C1.74009 3.85166 1.72241 4.67725 1.7494 5.50093C1.80337 7.15971 3.52492 8.17383 4.93658 7.38158C5.64102 6.9864 5.99929 6.35793 6.05512 5.5314C6.09607 4.92864 6.41804 4.60202 6.90845 4.58964C7.39142 4.57821 7.73479 4.92864 7.79807 5.49521C7.81761 5.66757 7.82134 5.84563 7.86693 6.01037C8.16937 7.09401 9.09528 7.74057 10.1859 7.64058C11.2021 7.54822 12.0117 6.68074 12.0917 5.57901C12.1261 5.1067 12.2899 4.74581 12.7682 4.61916C13.3601 4.46299 13.7946 4.87436 13.857 5.63519C13.9314 6.54457 14.5028 7.31397 15.3505 7.55488C16.2299 7.80532 17.0051 7.58916 17.6267 6.87975C17.9971 6.45792 18.1171 5.94371 18.1692 5.39713C18.2055 5.0191 18.4028 4.68201 18.7685 4.64677C19.0533 4.61916 19.419 4.72295 19.6349 4.90864C19.8135 5.06195 19.8722 5.41332 19.9038 5.68661C20.0415 6.86071 20.9749 7.69201 22.1409 7.64344C23.2864 7.59583 24.1602 6.6655 24.1686 5.47331C24.1742 4.6801 24.1704 3.8869 24.1695 3.09464C24.1686 2.40903 24.1239 2.36047 23.4614 2.36047C19.9755 2.35857 16.4877 2.35952 12.9999 2.35952ZM12.9664 17.3943C9.58569 17.3943 6.20494 17.3933 2.82513 17.3952C2.13372 17.3962 1.76708 17.6838 1.75498 18.2989C1.73172 19.4568 1.73451 20.6157 1.75312 21.7736C1.76149 22.2906 2.04997 22.583 2.55434 22.6592C2.75255 22.6887 2.95541 22.6982 3.15641 22.6982C9.70015 22.7001 16.2439 22.7001 22.7886 22.6991C22.9588 22.6991 23.1301 22.6963 23.2985 22.6734C23.9415 22.5877 24.1676 22.3325 24.1714 21.6765C24.177 20.6614 24.1732 19.6453 24.1732 18.6303C24.1732 17.6276 23.949 17.3952 22.9709 17.3943C19.6349 17.3943 16.3006 17.3943 12.9664 17.3943Z" fill="#6C9EBE"/>
</svg>
