<svg width="30" height="24" viewBox="0 0 30 24" fill="none" xmlns="http://www.w3.org/2000/svg">
<g clip-path="url(#clip0)">
<path d="M14.9172 23.9977C11.3228 23.9977 7.72847 24.0011 4.13411 23.996C1.37549 23.9908 0.0318495 22.6821 0.0182603 19.924C-0.00382228 15.8161 0.0471375 11.7048 -0.000424967 7.59512C-0.0326995 4.75315 1.75769 3.30904 4.07635 3.51632C4.7779 3.5797 5.49134 3.53345 6.19798 3.52317C6.98785 3.51289 7.9425 3.75101 8.51834 3.38784C9.05342 3.04865 9.23858 2.07735 9.47639 1.35101C9.80423 0.355718 10.4225 -0.0177292 11.4502 -0.000598576C13.9965 0.0456541 16.5445 0.0353757 19.0925 0.00454061C20.0234 -0.00745082 20.572 0.362571 20.8642 1.25165C21.1122 2.00368 21.26 3.02467 21.8036 3.37927C22.3896 3.76129 23.3833 3.51289 24.1987 3.52488C24.9053 3.53516 25.6136 3.52488 26.322 3.52831C28.3587 3.53859 29.7346 4.77371 29.9367 6.83109C30.0115 7.59512 29.9928 8.36942 29.9945 9.1403C29.9996 12.6795 30.003 16.2187 29.9945 19.7579C29.9877 22.6923 28.6865 23.996 25.7869 23.9994C22.1637 24.0011 18.5404 23.9977 14.9172 23.9977ZM14.9631 21.4041C18.6695 21.4041 22.376 21.4075 26.0825 21.4007C27.1102 21.399 27.4584 21.1112 27.4601 20.2152C27.472 15.9069 27.472 11.5968 27.4601 7.28848C27.4584 6.38741 27.1679 6.11503 26.288 6.10989C24.6471 6.10133 23.0062 6.11332 21.3653 6.10475C20.1847 6.09962 19.8909 5.8872 19.4764 4.78912C19.2963 4.30946 19.0704 3.8418 18.9447 3.34844C18.7867 2.7266 18.4215 2.57413 17.8287 2.5964C16.6991 2.6358 15.5491 2.73173 14.4365 2.58099C12.4287 2.30861 11.0918 2.8448 10.6654 5.02381C10.5092 5.82552 9.85519 6.12017 9.05172 6.11161C7.35476 6.09448 5.65611 6.10475 3.95915 6.10647C2.73951 6.10818 2.54077 6.3069 2.54077 7.554C2.53737 11.6054 2.53907 15.6585 2.53907 19.7099C2.53907 21.2225 2.70893 21.4007 4.17997 21.4024C7.77603 21.4058 11.3687 21.4041 14.9631 21.4041Z" fill="#242222"/>
<path d="M15.0247 6.24583C18.8195 6.25954 21.9841 9.47324 21.9722 13.3019C21.9586 17.1546 18.7838 20.3409 14.9839 20.3135C11.1517 20.2861 8.00243 17.0878 8.03641 13.2591C8.06868 9.40129 11.2282 6.23213 15.0247 6.24583ZM14.9618 8.82228C12.5412 8.83941 10.5266 10.8934 10.5521 13.3174C10.5776 15.7773 12.5701 17.7679 15.006 17.7662C17.4453 17.7645 19.4344 15.7756 19.4582 13.3156C19.482 10.8557 17.4266 8.80343 14.9618 8.82228Z" fill="#242222"/>
</g>
<defs>
<clipPath id="clip0">
<rect width="30" height="24" fill="white"/>
</clipPath>
</defs>
</svg>
