<svg width="24" height="24" viewBox="0 0 24 24" fill="none" xmlns="http://www.w3.org/2000/svg">
<g clip-path="url(#clip0)">
<path fill-rule="evenodd" clip-rule="evenodd" d="M12.0028 23.9995C5.38239 24.0064 -0.00701484 18.616 -0.000115453 11.9965C0.00678393 5.36422 5.39816 -0.021249 12.0097 -0.000550888C18.646 0.0201473 23.9802 5.35436 23.9999 11.9906C24.0196 18.6022 18.6341 23.9926 12.0028 23.9995ZM11.9881 22.25C17.6229 22.2598 22.2455 17.6461 22.2504 12.0064C22.2553 6.37744 17.6613 1.76963 12.0245 1.74894C6.39266 1.72922 1.76514 6.33703 1.74937 11.9807C1.73459 17.6146 6.34535 22.2391 11.9881 22.25Z" fill="#E84616"/>
<path d="M13.022 11.5417C13.1038 11.6038 13.1531 11.6334 13.1935 11.6728C14.4315 12.9107 15.6694 14.1487 16.9064 15.3876C17.1843 15.6656 17.2435 15.9622 17.0907 16.2845C16.8965 16.6926 16.3357 16.8158 15.9868 16.527C15.9355 16.4846 15.8873 16.4373 15.8399 16.391C14.6089 15.1609 13.3778 13.9309 12.1478 12.6998C12.1113 12.6633 12.0847 12.618 12.0443 12.5648C11.9792 12.6269 11.9349 12.6673 11.8925 12.7097C10.6506 13.9506 9.40873 15.1925 8.16684 16.4334C7.90171 16.6975 7.59617 16.7567 7.28077 16.6068C6.87469 16.4137 6.74951 15.8469 7.03633 15.501C7.07871 15.4497 7.12799 15.4034 7.1753 15.3561C8.40142 14.129 9.62853 12.9009 10.8556 11.6748C10.8951 11.6353 10.9443 11.6048 11.0015 11.5604C10.9394 11.4954 10.898 11.451 10.8556 11.4086C9.61473 10.1668 8.37284 8.92487 7.13194 7.68298C6.87075 7.42179 6.81161 7.1261 6.95255 6.8107C7.13884 6.39476 7.71346 6.26072 8.06434 6.55148C8.11559 6.59386 8.16192 6.64314 8.20923 6.69045C9.43633 7.91756 10.6634 9.14368 11.8905 10.3718C11.93 10.4112 11.9605 10.4605 11.995 10.5058C12.0187 10.5157 12.0413 10.5245 12.065 10.5344C12.0956 10.4802 12.1153 10.4161 12.1576 10.3737C13.3936 9.13382 14.6326 7.89686 15.8715 6.6599C16.1494 6.38195 16.4422 6.3238 16.7684 6.47558C17.1617 6.6599 17.2977 7.21283 17.0316 7.55583C16.9843 7.61694 16.9291 7.67115 16.8749 7.72634C15.6448 8.95739 14.4147 10.1884 13.1837 11.4195C13.1472 11.454 13.1019 11.4806 13.022 11.5417Z" fill="#E84616"/>
</g>
<defs>
<clipPath id="clip0">
<rect width="24" height="24" fill="white"/>
</clipPath>
</defs>
</svg>
