<svg width="30" height="31" viewBox="0 0 30 31" fill="none" xmlns="http://www.w3.org/2000/svg">
<g clip-path="url(#clip0)">
<path d="M19.5787 17.9076C20.8642 19.1558 22.0852 20.3651 23.3442 21.5356C23.5082 21.6896 23.8925 21.7447 24.1261 21.6782C26.1472 21.1076 27.9878 22.124 28.4284 24.0904C28.8244 25.8509 27.5289 27.5628 25.5807 27.8546C23.3326 28.1917 21.4341 25.9644 22.1315 23.7483C22.2889 23.2474 22.1912 22.9654 21.8433 22.6249C20.6737 21.4821 19.5306 20.3116 18.4306 19.2044C17.6321 19.506 16.9595 19.7345 16.3134 20.0231C16.1445 20.0993 15.997 20.3473 15.9556 20.5418C15.896 20.8272 15.9622 21.1352 15.9357 21.4302C15.8413 22.4807 15.9208 23.2523 17.1699 23.8278C18.8514 24.6027 19.408 26.655 18.7802 28.3928C18.1904 30.0284 16.4874 31.1162 14.7131 30.9914C12.8312 30.86 11.3088 29.4465 10.989 27.5336C10.724 25.9449 11.7511 24.152 13.3895 23.4809C13.8948 23.2734 14.1383 23.061 14.0853 22.4936C14.0124 21.7204 14.3089 20.7526 13.9312 20.2144C13.5551 19.6794 12.5413 19.5724 11.539 19.1704C10.555 20.1884 9.49639 21.3589 8.35331 22.4417C7.74202 23.0205 7.5134 23.4776 7.84804 24.353C8.49578 26.0438 7.61942 27.9664 6.00089 28.8564C4.32603 29.7772 2.36127 29.4546 1.02602 28.0361C-0.176699 26.7603 -0.34402 24.7648 0.630082 23.3123C1.68867 21.7333 3.66172 21.0492 5.40616 21.7706C6.039 22.0316 6.37198 21.9279 6.81264 21.4756C7.97229 20.2841 9.1866 19.1428 10.4158 17.9449C10.28 17.6855 10.1557 17.4537 10.0398 17.2186C9.18495 15.5019 9.14022 13.7754 10.0994 12.0992C10.3959 11.5821 10.2982 11.3081 9.90558 10.9402C8.84865 9.94967 7.81325 8.93811 6.80105 7.90548C6.48297 7.58126 6.22288 7.54398 5.79547 7.68501C4.0295 8.27022 2.22211 7.33648 1.66217 5.59057C1.14033 3.96138 2.09786 2.18467 3.78763 1.64809C5.49562 1.10502 7.38087 2.03066 7.85632 3.7328C8.01702 4.30505 8.04684 4.99239 7.87952 5.55328C7.70723 6.13039 7.84804 6.43029 8.24066 6.7999C9.27606 7.77255 10.2866 8.76952 11.2872 9.77783C11.6003 10.0939 11.8306 10.1588 12.2679 9.92535C14.0952 8.94783 15.9589 8.94783 17.7829 9.94804C18.1705 10.1604 18.3991 10.141 18.704 9.83295C19.8189 8.70954 20.9487 7.59909 22.0984 6.5081C22.4447 6.18064 22.5175 5.92775 22.3072 5.46737C21.555 3.81386 22.0901 1.89774 23.538 0.819713C25.0141 -0.279383 26.9706 -0.269656 28.4533 0.842408C29.8962 1.92529 30.3899 3.81062 29.6725 5.50303C28.9933 7.10628 27.2456 8.07407 25.4548 7.83901C25.3189 7.82118 25.1566 7.83253 25.0522 7.76444C24.0234 7.10304 23.3939 7.65421 22.7246 8.39018C21.8814 9.31582 20.9272 10.1458 20.0525 11.0455C19.8802 11.2238 19.688 11.621 19.7742 11.7669C20.9752 13.8208 20.8626 15.8326 19.5787 17.9076ZM18.7454 14.7092C18.7504 12.6488 17.0523 10.9661 14.9898 10.9855C12.9306 11.0082 11.2706 12.6423 11.2557 14.6638C11.2408 16.7307 12.9107 18.3696 15.0246 18.3663C17.0921 18.3631 18.7404 16.742 18.7454 14.7092ZM6.19638 25.4278C6.203 24.2655 5.25209 23.3398 4.04441 23.3317C2.83009 23.3236 1.88581 24.2217 1.86593 25.3986C1.84605 26.5852 2.85329 27.5806 4.056 27.5628C5.22227 27.5482 6.18809 26.5836 6.19638 25.4278ZM23.8445 3.88356C23.8163 5.08641 24.696 6.01367 25.907 6.05582C27.128 6.09959 28.1418 5.1545 28.1551 3.96138C28.1683 2.82013 27.1959 1.83775 26.028 1.8102C24.8517 1.78264 23.871 2.71152 23.8445 3.88356ZM14.9931 29.1579C16.1743 29.1693 17.1699 28.2371 17.1997 27.091C17.2279 25.9757 16.2306 24.9674 15.071 24.9382C13.8235 24.9058 12.8693 25.8217 12.8643 27.0554C12.8594 28.2452 13.7722 29.1466 14.9931 29.1579ZM6.19141 4.67628C6.18809 3.93544 5.51881 3.27728 4.77664 3.28376C4.04109 3.29025 3.36022 3.963 3.35359 4.68762C3.34862 5.42684 4.01127 6.05906 4.78492 6.0542C5.57514 6.04771 6.19472 5.44143 6.19141 4.67628ZM25.2344 23.3333C24.4194 23.3317 23.8412 23.904 23.8478 24.708C23.8528 25.4861 24.479 26.0892 25.2609 26.073C25.9965 26.0568 26.6061 25.4521 26.6243 24.7194C26.6459 23.9348 26.0429 23.335 25.2344 23.3333Z" fill="#242222"/>
</g>
<defs>
<clipPath id="clip0">
<rect width="30" height="31" fill="white"/>
</clipPath>
</defs>
</svg>
