<svg width="26" height="25" viewBox="0 0 26 25" fill="none" xmlns="http://www.w3.org/2000/svg">
<path d="M2.88337 24.4182C1.94257 24.4923 1.1153 24.1815 0.574641 23.3707C0.315013 22.9819 0.084233 22.4905 0.0609689 22.0333C-0.007893 20.6911 -0.0274349 19.3385 0.0498021 17.9973C0.1289 16.6161 1.23906 15.638 2.60141 15.601C2.8629 15.5934 3.12346 15.6 3.4231 15.6C3.43706 15.4384 3.45939 15.3025 3.45939 15.1656C3.46126 13.4081 3.45195 11.6496 3.46777 9.89204C3.47056 9.52798 3.37006 9.38635 3.00063 9.3008C1.25861 8.89777 0.0767885 7.36551 0.0283991 5.48249C0.00606548 4.59564 0.0116489 3.70878 0.0274685 2.82193C0.0498021 1.52635 0.945937 0.626189 2.22453 0.625238C9.38803 0.620485 16.5506 0.620485 23.7141 0.625238C25.0122 0.626189 25.7995 1.38472 25.9214 2.91128C26.021 4.15079 26.087 5.41975 25.7232 6.63359C25.2895 8.08221 24.2948 8.96336 22.8626 9.32647C22.6551 9.37875 22.4783 9.39491 22.4792 9.68672C22.4867 11.6334 22.4829 13.5801 22.4829 15.6209C22.898 15.6209 23.2553 15.582 23.6015 15.6285C24.7312 15.7787 25.9232 16.5353 25.9456 18.5562C25.9586 19.7263 25.9447 20.8983 25.8749 22.0656C25.7976 23.346 24.8149 24.287 23.5382 24.4106C23.1948 24.4438 22.7323 24.3811 22.5472 24.5798L2.88337 24.4182ZM20.191 24.4172C18.1446 24.4419 16.0974 24.4277 14.0511 24.4277C11.291 24.4277 8.53098 24.4362 5.77185 24.4182L20.191 24.4172ZM5.20234 15.5649C10.4098 15.5649 15.5586 15.5649 20.74 15.5649C20.74 13.4898 20.7409 11.45 20.7353 9.41011C20.7353 9.32742 20.6935 9.2105 20.6321 9.16868C20.0849 8.80082 19.5303 8.44627 18.9682 8.08221C16.974 9.90629 14.9547 9.89774 12.9623 8.01377C10.93 9.9196 8.91809 9.90059 6.98717 8.06795C6.43162 8.43106 5.90957 8.76185 5.40242 9.1126C5.30657 9.17913 5.21165 9.33027 5.21165 9.44338C5.19955 11.468 5.20234 13.4927 5.20234 15.5649ZM12.9986 2.37328C9.48015 2.37328 5.96169 2.37233 2.44322 2.37423C1.8337 2.37423 1.74715 2.45693 1.74343 3.03961C1.73878 3.86277 1.7211 4.68689 1.74808 5.5091C1.80206 7.16494 3.5236 8.17727 4.93527 7.38642C5.63971 6.99194 5.99798 6.36459 6.05381 5.53952C6.09476 4.93783 6.41673 4.6118 6.90714 4.59944C7.3901 4.58803 7.73348 4.93783 7.79676 5.5034C7.8163 5.67545 7.82002 5.8532 7.86562 6.01764C8.16806 7.09936 9.09397 7.74477 10.1846 7.64496C11.2008 7.55276 12.0104 6.68682 12.0904 5.58705C12.1248 5.11558 12.2886 4.75533 12.7669 4.62891C13.3588 4.47302 13.7933 4.88365 13.8557 5.64313C13.9301 6.5509 14.5015 7.31893 15.3492 7.55942C16.2286 7.80941 17.0038 7.59364 17.6254 6.88548C17.9958 6.4644 18.1158 5.95111 18.1679 5.4055C18.2042 5.02813 18.4015 4.69164 18.7672 4.65647C19.052 4.62891 19.4177 4.73251 19.6336 4.91787C19.8122 5.07091 19.8708 5.42166 19.9025 5.69446C20.0402 6.86647 20.9736 7.69629 22.1396 7.64782C23.2851 7.60029 24.1589 6.67161 24.1673 5.48154C24.1729 4.68974 24.1691 3.89794 24.1682 3.10709C24.1673 2.42271 24.1226 2.37423 23.46 2.37423C19.9741 2.37233 16.4864 2.37328 12.9986 2.37328ZM12.9651 17.3813C9.58438 17.3813 6.20363 17.3804 2.82382 17.3823C2.13241 17.3832 1.76577 17.6703 1.75367 18.2843C1.7304 19.4402 1.7332 20.597 1.75181 21.7529C1.76018 22.269 2.04866 22.5608 2.55302 22.6369C2.75123 22.6663 2.9541 22.6758 3.1551 22.6758C9.69884 22.6777 16.2426 22.6777 22.7872 22.6768C22.9575 22.6768 23.1288 22.6739 23.2972 22.6511C23.9402 22.5656 24.1663 22.3108 24.1701 21.6559C24.1756 20.6426 24.1719 19.6284 24.1719 18.6151C24.1719 17.6142 23.9477 17.3823 22.9696 17.3813C19.6336 17.3813 16.2993 17.3813 12.9651 17.3813Z" fill="white"/>
</svg>
