<svg width="24" height="24" viewBox="0 0 24 24" fill="none" xmlns="http://www.w3.org/2000/svg">
<path fill-rule="evenodd" clip-rule="evenodd" d="M12.0029 24C5.3825 24.0069 -0.00689275 18.6165 6.61692e-06 11.9971C0.00690598 5.36481 5.39827 -0.0206386 12.0098 5.94632e-05C18.646 0.0207576 23.9802 5.35496 23.9999 11.9912C24.0197 18.6027 18.6342 23.9931 12.0029 24ZM11.9881 22.2505C17.623 22.2604 22.2455 17.6467 22.2505 12.0069C22.2554 6.37803 17.6614 1.77024 12.0246 1.74954C6.39276 1.72983 1.76526 6.33762 1.74949 11.9813C1.7347 17.6151 6.34545 22.2397 11.9881 22.2505Z" fill="#188D8D"/>
<path fill-rule="evenodd" clip-rule="evenodd" d="M10.0791 15.3298C10.2831 15.0834 10.4822 14.8458 10.6793 14.6063C12.5382 12.3522 14.3981 10.0991 16.254 7.84297C16.4945 7.55024 16.802 7.45069 17.1529 7.52658C17.4585 7.59163 17.6802 7.79073 17.7778 8.09726C17.8892 8.44913 17.7906 8.75171 17.557 9.03262C16.6808 10.0862 15.8115 11.1468 14.9402 12.2034C13.6037 13.8237 12.2662 15.4451 10.9287 17.0645C10.5088 17.573 10.0072 17.6322 9.52124 17.1906C8.26358 16.0483 7.01973 14.8912 5.76995 13.74C5.50975 13.5004 5.42302 13.1988 5.51764 12.8667C5.61817 12.5148 5.86852 12.298 6.23418 12.2359C6.52001 12.1876 6.76248 12.2793 6.97537 12.4774C7.94326 13.3772 8.91508 14.2732 9.88493 15.1691C9.93816 15.2204 9.9973 15.2627 10.0791 15.3298Z" fill="#188D8D"/>
</svg>
