<svg width="30" height="20" viewBox="0 0 30 20" fill="none" xmlns="http://www.w3.org/2000/svg">
<path d="M5.92609 11.6769C3.91273 14.1055 2.71647 16.8397 2.41291 19.9988C1.60541 19.9988 0.819502 19.9988 0.00359957 19.9988C0.284366 16.1434 1.79498 12.859 4.08431 10.059C3.15442 8.44604 2.18614 6.91582 1.36784 5.30891C0.536336 3.67521 0.200376 1.87473 0 0C0.809903 0 1.59341 0 2.42251 0C2.63968 1.94169 3.17122 3.78599 4.10351 5.48299C4.61585 6.41549 5.25777 7.27494 5.87689 8.22326C10.3992 4.51154 15.4385 3.20287 21.0407 4.45919C24.5958 5.25656 27.5571 7.13981 29.9988 9.87157C25.401 15.6224 14.6826 18.9056 5.92609 11.6769ZM7.69468 9.90566C10.6535 12.4025 14.0227 13.4311 17.8227 13.369C17.3835 11.0597 17.3295 8.78934 17.7951 6.45688C13.9879 6.36314 10.6523 7.47459 7.69468 9.90566ZM26.5768 9.89957C24.6438 8.34013 22.5705 7.30538 20.2092 6.78191C19.788 8.92811 19.7352 10.9684 20.244 13.0257C22.6125 12.5291 24.6618 11.459 26.5768 9.89957Z" fill="white"/>
</svg>
