<svg width="199" height="193" viewBox="0 0 199 193" fill="none" xmlns="http://www.w3.org/2000/svg">
<g clip-path="url(#clip0)">
<path d="M101.048 37.2282C101.534 35.5174 101.997 33.7989 102.505 32.0956C104.357 25.9137 106.163 19.7166 108.121 13.5652C109.108 10.478 110.33 7.4669 111.582 4.4786C112.037 3.38365 112.781 2.35714 113.593 1.4827C114.807 0.16724 115.976 0.342128 116.947 1.82487C118.086 3.55854 118.549 5.54314 118.936 7.54294C119.672 11.4209 119.641 15.3444 119.444 19.2452C119.232 23.5109 118.784 27.7615 118.42 32.0196C118.116 35.5478 117.812 39.0836 117.471 42.6117C117.091 46.4669 116.659 50.322 116.257 54.1771C115.93 57.2491 115.642 60.3286 115.285 63.3929C114.875 66.9439 114.466 70.4949 113.934 74.0231C113.509 76.8365 112.971 79.6271 112.348 82.4025C112.075 83.5963 111.559 84.7673 110.99 85.8622C109.563 88.5996 107.112 87.7936 105.799 86.25C104.516 84.7445 104.076 82.8587 103.788 80.9578C103.15 76.7909 103.355 72.6164 103.742 68.4343C104.099 64.602 104.372 60.762 104.706 56.9297C104.85 55.3025 105.04 53.6753 105.199 52.0481C105.23 51.6907 105.207 51.3333 105.017 50.9303C104.919 51.2192 104.835 51.5082 104.729 51.7895C103.826 54.1315 103.006 56.5115 101.982 58.8002C101.564 59.7355 100.798 60.5719 100.031 61.2639C99.0143 62.1839 97.8305 61.9482 97.0791 60.7924C96.0167 59.1652 95.8118 57.2871 95.5993 55.4165C95.5082 54.6105 95.4323 53.8121 95.1591 53.0061C95.0149 54.3748 94.9011 55.7511 94.7341 57.1198C94.0587 62.7694 93.8842 68.4875 92.3891 74.0155C91.911 75.7796 91.2128 77.4676 89.991 78.8667C88.0558 81.087 85.0885 81.0262 83.2367 78.7298C81.8859 77.057 81.2484 75.0496 81.2712 72.9814C81.3167 68.0693 81.5368 63.1572 81.7493 58.2528C81.8783 55.2265 82.106 52.2001 82.3336 49.1814C82.5917 45.7977 82.9028 42.4216 83.1836 39.0379C83.3885 36.4983 83.5706 33.9662 83.7831 31.4265C84.0488 28.3166 84.3447 25.2142 84.6255 22.1042C84.8228 19.9296 84.9594 17.7473 85.2478 15.5878C85.5742 13.1317 86.3103 10.7898 87.9268 8.82798C89.4142 7.02588 91.1142 6.57725 93.277 7.39847C93.4971 7.48211 93.7476 7.58856 93.9676 7.55815C95.4551 7.36805 96.3734 8.18926 97.0867 9.32223C98.2479 11.1852 98.855 13.261 99.0902 15.4129C99.5987 20.0132 100.009 24.6287 100.388 29.2518C100.593 31.7611 100.631 34.2779 100.752 36.7948C100.76 36.9317 100.798 37.0761 100.828 37.213C100.889 37.2206 100.965 37.2206 101.048 37.2282Z" fill="white"/>
<path d="M137.809 74.6847C135.844 75.7492 134.061 76.7073 132.285 77.673C130.418 78.6843 128.574 79.7336 126.692 80.7069C126.077 81.0263 125.743 81.4521 125.561 82.1212C124.961 84.2959 124.225 86.4326 122.76 88.189C122.244 88.805 121.493 89.3752 120.734 89.6033C119.581 89.9607 118.632 89.3524 117.941 88.3715C116.871 86.8584 116.484 85.1247 116.348 83.3226C115.991 78.7223 116.932 74.2665 117.843 69.8106C119.497 61.6822 121.152 53.5537 122.889 45.4404C124.931 35.9128 127.018 26.3853 129.181 16.8805C130.122 12.744 131.275 8.66078 132.391 4.56993C132.793 3.09479 133.469 1.69569 134.728 0.752814C135.244 0.36502 135.958 0.136906 136.618 0.0532638C137.468 -0.0531896 138.364 -0.00756671 139.221 0.0912828C140.39 0.220548 141.331 0.821249 141.991 1.80974C143.509 4.08328 144.313 6.60775 144.42 9.32991C144.647 15.2457 144.822 21.1614 145.019 27.0696C145.133 30.5598 145.262 34.0423 145.376 37.5325C145.497 41.2051 145.619 44.8701 145.74 48.5428C145.861 52.3371 145.983 56.1238 146.112 59.9181C146.233 63.682 146.37 67.4382 146.476 71.2021C146.544 73.6277 146.704 76.061 146.575 78.4866C146.461 80.6841 146.142 82.8892 145.664 85.0335C145.421 86.098 144.769 87.1625 144.04 88.0066C143.054 89.1547 141.642 89.0027 140.655 87.8317C139.502 86.4554 139.039 84.7673 138.773 83.0641C138.424 80.7905 138.257 78.4942 138.007 76.2054C137.954 75.7644 137.893 75.3234 137.809 74.6847ZM136.648 34.3008C136.557 34.2932 136.466 34.2856 136.368 34.2856C134.25 43.8968 132.133 53.5005 129.978 63.3018C130.441 63.1345 130.699 63.0584 130.934 62.952C132.399 62.2905 133.856 61.6213 135.32 60.9598C137.438 60.0017 137.385 60.0017 137.301 57.6673C137.142 53.1811 137.035 48.6872 136.929 44.201C136.853 41.0454 136.793 37.8898 136.724 34.7342C136.717 34.5822 136.679 34.4377 136.648 34.3008Z" fill="white"/>
<path d="M18.5477 12.7516C18.9347 12.5387 19.3597 12.2345 19.8302 12.0672C21.2494 11.5654 22.6458 10.9115 24.1104 10.6834C27.0702 10.2195 29.1344 11.8391 30.7736 14.0899C32.5495 16.5231 33.4146 19.3289 33.9079 22.2488C34.811 27.5714 34.4619 32.8789 33.6575 38.1787C31.7374 50.8999 26.7894 62.5186 20.5436 73.6277C18.2593 77.6958 15.6714 81.5965 13.1215 85.4973C12.4233 86.5694 11.4064 87.4667 10.4122 88.3031C7.99889 90.3561 5.85878 90.1052 3.39993 88.0294C1.50267 86.4249 0.629926 84.1666 0.19735 81.7486C-0.311116 78.882 0.204939 76.0762 0.637515 73.2627C1.28258 69.0426 1.92006 64.8225 2.56513 60.61C3.13431 56.8993 3.71867 53.1887 4.28785 49.4856C5.00881 44.8929 5.69941 40.3154 6.40519 35.7379C7.14892 30.9551 7.90023 26.1723 8.65155 21.3819C8.97788 19.3213 9.30421 17.253 9.67607 15.2C10.0403 13.223 10.822 11.4133 12.3171 10.0294C13.7438 8.71396 15.6487 8.79 16.9084 10.2575C17.5383 10.9875 17.9785 11.8695 18.5477 12.7516ZM12.3626 65.773C12.4385 65.7958 12.5068 65.8186 12.5827 65.8414C12.6662 65.7274 12.7724 65.6209 12.8407 65.4992C16.9691 58.3745 20.7257 51.0748 23.5413 43.3189C25.1046 39.0076 26.463 34.6202 26.2202 29.9514C26.1595 28.7956 25.8483 27.617 25.4309 26.5373C24.9984 25.4348 23.9966 25.0622 22.8127 25.2675C20.3766 25.6857 18.487 27.541 18.0771 30.0275C17.1589 35.6391 16.271 41.2659 15.3754 46.8851C14.6697 51.2801 13.9563 55.6675 13.2581 60.0625C12.9394 61.9635 12.6586 63.872 12.3626 65.773Z" fill="white"/>
<path d="M159.18 61.5832C158.991 62.9139 158.808 64.2446 158.619 65.5676C157.89 70.6926 157.458 75.8708 155.872 80.8285C155.447 82.144 154.893 83.4594 154.172 84.6304C153.064 86.4249 151.257 86.25 150.461 84.2806C150.028 83.2085 149.747 82.0071 149.686 80.8513C149.406 75.445 149.982 70.0691 150.536 64.7008C150.984 60.3666 151.508 56.0325 152.039 51.7059C152.593 47.1968 153.2 42.703 153.792 38.1939C154.475 32.9701 155.151 27.7463 155.849 22.5301C156.327 18.9258 156.744 15.3064 158.057 11.8847C158.482 10.767 159.059 9.66441 159.795 8.72914C160.713 7.55815 161.859 7.67981 162.55 9.00287C163.089 10.0294 163.354 11.208 163.719 12.3181C163.832 12.6603 163.87 13.0177 163.977 13.4967C164.386 13.3142 164.736 13.1698 165.077 13.0101C166.42 12.4094 167.786 11.9456 169.289 12.1661C171.179 12.4398 172.317 13.6868 173.243 15.2228C174.533 17.3595 174.981 19.7471 175.171 22.1651C175.838 30.7422 174.062 38.8707 170.306 46.5581C169.342 48.5275 167.976 50.3144 166.731 52.1317C166.398 52.6183 166.39 52.9453 166.64 53.4319C168.31 56.6332 169.889 59.8876 171.626 63.0432C173.197 65.887 173.129 68.8373 172.537 71.8636C172.196 73.5973 171.444 75.1484 170.169 76.3955C168.864 77.6729 167.475 77.6805 166.481 76.1445C165.054 73.9394 163.779 71.6203 162.626 69.2555C161.571 67.0808 160.766 64.7768 159.848 62.5337C159.712 62.2067 159.567 61.8874 159.423 61.568C159.34 61.568 159.264 61.5756 159.18 61.5832ZM161.943 41.4407C162.246 41.1974 162.436 41.0986 162.55 40.9541C164.751 38.1483 166.618 35.1524 167.726 31.7307C168.356 29.7841 168.431 27.8147 167.87 25.8301C167.657 25.0621 167.172 24.8264 166.435 24.9253C165.229 25.0925 164.09 26.1571 163.916 27.3509C163.263 31.9664 162.626 36.5743 161.943 41.4407Z" fill="white"/>
<path d="M128.475 149.126C117.038 149.324 105.814 147.689 94.7113 145.028C83.2898 142.29 72.0352 138.99 60.8186 135.515C55.8782 133.987 50.877 132.671 45.724 132.048C36.0783 130.884 27.4724 133.386 19.9516 139.515C17.9633 141.134 16.5138 143.195 16.2026 145.864C15.7245 150.031 18.7298 152.852 22.752 152.426C24.6948 152.221 26.3416 151.438 27.571 149.848C28.3527 148.837 28.7321 147.674 28.6714 146.457C28.6259 145.461 29.0812 144.898 29.825 144.617C31.4338 144.016 33.0655 143.461 34.7427 143.096C35.9417 142.838 37.2091 142.914 38.4461 142.876C39.2733 142.845 39.6528 143.248 39.5693 144.115C39.3872 146.122 38.5068 147.765 37.0649 149.126C34.7806 151.27 31.9954 152.54 29.1116 153.605C24.7099 155.224 20.202 156.41 15.4665 156.19C13.6148 156.106 11.7175 155.779 9.95684 155.217C5.39582 153.749 4.46996 149.468 6.22303 145.514C7.58146 142.435 9.94925 140.23 12.6889 138.397C17.4169 135.226 22.6837 133.211 28.0264 131.409C32.5646 129.881 37.2319 128.839 41.9978 128.337C46.5968 127.858 51.1881 128.048 55.7567 128.748C64.7422 130.124 73.3026 133.09 81.9693 135.667C91.3949 138.473 100.828 141.264 110.497 143.111C115.126 143.993 119.793 144.663 124.468 145.233C127.587 145.613 130.744 145.704 133.886 145.811C145.816 146.199 157.306 144.047 168.348 139.522C172.438 137.842 175.922 135.196 179.2 132.284C181.469 130.276 183.716 128.231 185.78 126.01C186.759 124.961 187.465 123.539 187.943 122.17C188.391 120.901 189.134 120.155 190.288 119.737C192.815 118.832 195.426 118.361 198.12 118.452C199 118.483 199.106 118.658 198.856 119.524C198.226 121.707 197.042 123.585 195.494 125.189C189.977 130.877 184.095 136.101 176.787 139.439C171.285 141.956 165.525 143.72 159.651 145.104C154.832 146.237 149.982 147.301 145.103 148.138C141.771 148.708 138.371 148.905 134.994 149.126C132.846 149.24 130.661 149.126 128.475 149.126Z" fill="white"/>
<path d="M45.1169 39.6158C46.3388 39.1672 47.295 38.8098 48.2512 38.4677C50.7328 37.5932 52.706 38.6121 53.1613 41.2127C53.389 42.5205 53.2828 43.9272 53.1006 45.2503C52.8578 46.9687 51.9167 48.2462 50.2092 48.9077C47.72 49.8658 45.2611 50.8771 42.8023 51.9112C42.4304 52.0633 41.9675 52.4055 41.8764 52.7476C41.2465 55.2113 40.6925 57.6977 40.1234 60.1766C40.1006 60.2906 40.1234 60.4123 40.1234 60.6784C40.4649 60.5644 40.7684 60.5035 41.0416 60.3743C44.0241 58.96 47.0597 57.6521 49.9739 56.0933C53.4953 54.2076 55.9238 56.3823 56.1362 59.8192C56.3639 63.4842 54.9675 66.3128 51.6967 68.1225C47.3557 70.5177 42.8782 72.586 38.0136 73.6353C36.7614 73.909 35.403 74.0763 34.1508 73.9015C33.1414 73.757 32.041 73.2019 31.2897 72.5023C29.0282 70.3885 28.292 67.6587 28.7094 64.6172C29.4759 59.036 31.3808 53.7437 32.8303 48.3374C35.1829 39.5626 37.6266 30.8106 40.1082 22.0738C40.4269 20.9485 41.0492 19.8155 41.8081 18.9259C43.0603 17.4583 45.0335 17.4127 46.5361 18.6217C47.0218 19.0095 47.4544 19.0932 48.0311 18.9487C50.5583 18.3404 53.093 17.7625 55.6278 17.1694C57.7755 16.6675 59.9459 17.6712 60.849 19.6558C62.0633 22.3248 61.7142 27.2901 58.3522 29.3583C57.2139 30.0579 55.8782 30.4989 54.5881 30.8867C52.3645 31.5634 50.0954 32.1109 47.8566 32.7344C47.5986 32.8104 47.2267 32.9777 47.1584 33.1906C46.4602 35.2437 45.8379 37.2967 45.1169 39.6158Z" fill="white"/>
<path d="M56.0679 102.872C55.6505 103.708 55.2483 104.552 54.8081 105.381C54.5804 105.807 54.3072 106.218 54.0037 106.598C53.2675 107.518 52.4555 108.43 51.1274 108.111C49.8145 107.792 49.6248 106.575 49.344 105.488C49.2074 104.963 49.1618 104.423 48.9418 103.883C48.623 106.035 48.3119 108.195 47.978 110.339C47.6289 112.597 47.2039 114.84 46.0352 116.84C45.6405 117.509 45.1472 118.163 44.5629 118.665C43.3638 119.692 41.9219 119.578 40.7987 118.483C39.2657 116.992 38.5979 115.107 38.689 113.038C38.8332 109.7 39.076 106.37 39.3947 103.047C39.7894 98.9713 40.2902 94.9032 40.7759 90.8352C41.0492 88.516 41.3072 86.1893 41.7094 83.8929C41.8612 83.0261 42.2862 82.1592 42.7795 81.4141C43.6446 80.091 44.9044 79.361 46.5588 79.5435C47.3025 79.6272 48.0614 79.6728 48.7976 79.802C49.8828 79.9845 50.6569 80.7069 50.9984 81.665C51.56 83.2542 52.0685 84.8966 52.3113 86.5542C52.6756 89.0711 52.7818 91.626 53.0019 94.1656C53.0323 94.4926 53.0778 94.8196 53.2599 95.177C53.647 94.2037 54.0188 93.2304 54.4211 92.2723C55.6657 89.2764 56.8799 86.2653 58.208 83.2998C58.6709 82.2581 59.3236 81.2696 60.0521 80.3951C61.1677 79.0721 62.6476 78.441 64.3627 79.0797C66.0171 79.6956 66.7001 81.1403 66.6925 82.7675C66.6774 85.2236 66.5635 87.6872 66.2752 90.1204C65.7136 94.9108 65.0305 99.686 64.3475 104.461C63.915 107.495 63.4368 110.521 62.898 113.533C62.6172 115.107 61.9418 116.566 60.3102 117.137C56.7281 118.391 54.8233 115.738 55.0585 112.886C55.3242 109.715 55.8174 106.56 56.2045 103.397C56.2272 103.222 56.2045 103.047 56.2045 102.864C56.1665 102.872 56.1134 102.872 56.0679 102.872Z" fill="white"/>
<path d="M104.228 113.943C103.704 114.894 103.302 115.738 102.801 116.528C102.445 117.083 102.02 117.623 101.542 118.08C100.001 119.54 98.4148 119.159 97.7698 117.152C97.4966 116.308 97.3979 115.403 97.1702 114.278C96.9881 114.726 96.8591 114.977 96.7832 115.243C96.0319 117.836 95.3109 120.437 94.5141 123.014C94.2181 123.965 93.8387 124.908 93.3226 125.752C92.245 127.539 90.5146 128.185 88.6553 127.66C86.9174 127.174 85.8018 125.623 85.726 123.608C85.6121 120.749 86.2496 117.988 86.9554 115.266C88.5187 109.221 90.1807 103.207 91.8124 97.1767C92.0476 96.3023 92.245 95.3974 92.594 94.5686C93.6034 92.2114 95.5689 91.2533 98.0506 91.8312C98.7715 91.9985 99.705 91.9301 100.183 92.3635C100.957 93.063 101.708 94.0059 101.982 94.9868C102.536 96.9866 102.832 99.0777 103.105 101.146C103.348 102.994 103.416 104.864 103.735 106.788C103.917 106.431 104.099 106.066 104.281 105.708C105.564 103.199 106.831 100.674 108.159 98.188C108.493 97.5569 108.948 96.9562 109.457 96.4467C110.626 95.2758 112.045 94.7055 113.676 95.3062C115.3 95.9069 116.059 97.2984 115.999 98.8876C115.915 101.085 115.725 103.321 115.209 105.45C113.312 113.282 111.271 121.083 109.252 128.885C108.804 130.618 108.045 132.139 106.065 132.603C103.53 133.204 101.359 131.69 101.405 129.09C101.435 127.356 101.86 125.615 102.209 123.896C102.854 120.718 103.575 117.555 104.258 114.392C104.289 114.293 104.251 114.202 104.228 113.943Z" fill="white"/>
<path d="M126.585 111.981C127.875 111.639 128.938 111.335 130.023 111.077C131.913 110.628 133.636 111.845 133.894 113.776C134.182 115.996 133.241 117.669 131.146 118.399C128.945 119.159 126.714 119.829 124.483 120.49C123.959 120.642 123.671 120.885 123.519 121.418C123.056 123.068 122.54 124.71 121.986 126.55C122.51 126.383 122.836 126.292 123.163 126.178C125.948 125.159 128.725 124.117 131.518 123.129C133.651 122.376 135.692 123.25 136.193 125.121C136.497 126.254 136.451 127.402 135.95 128.504C135.381 129.751 134.455 130.664 133.241 131.227C128.748 133.318 124.081 134.914 119.163 135.606C117.357 135.857 115.513 135.835 113.965 134.572C111.863 132.854 111.293 130.656 112.052 128.117C113.137 124.459 114.314 120.825 115.399 117.167C117.069 111.533 118.693 105.883 120.355 100.241C121.068 97.8155 122.556 96.6977 124.756 96.8802C125.143 96.9106 125.584 96.9715 125.88 97.1844C126.676 97.7699 127.488 97.6482 128.369 97.4733C130.357 97.0779 132.353 96.7129 134.349 96.3936C135.502 96.2035 136.648 96.3175 137.711 96.8726C138.652 97.3669 139.365 98.1272 139.487 99.1614C139.638 100.477 139.623 101.815 139.547 103.146C139.479 104.347 138.713 105.115 137.574 105.351C135.502 105.777 133.408 106.111 131.328 106.476C131.002 106.537 130.661 106.644 130.342 106.605C128.885 106.423 128.338 107.282 127.959 108.499C127.602 109.609 127.101 110.681 126.585 111.981Z" fill="white"/>
<path d="M22.198 118.756C19.1927 119.57 16.1799 120.376 13.1898 121.235C12.909 121.319 12.6434 121.752 12.522 122.079C11.0345 126.132 9.4484 130.139 7.11856 133.797C6.48867 134.785 5.707 135.698 4.93291 136.58C4.58382 136.975 4.09812 137.294 3.61242 137.523C2.23121 138.169 0.887952 137.599 0.74376 136.093C0.607157 134.588 0.622336 132.953 1.05491 131.523C2.13256 127.957 3.33921 124.421 4.75078 120.977C8.12031 112.727 11.6113 104.522 15.1098 96.3175C15.846 94.5914 16.7794 92.949 17.6673 91.2914C18.5401 89.6566 19.9137 88.881 21.773 89.0102C22.2587 89.0407 22.7444 89.0407 23.2301 89.0407C25.7724 89.0483 27.5938 90.7363 27.7608 93.2912C28.2085 100.051 28.6487 106.803 29.0813 113.563C29.2179 115.654 29.3469 117.745 29.4 119.836C29.4152 120.49 29.271 121.167 29.0737 121.79C28.6411 123.167 27.5938 123.836 26.1974 123.904C24.8693 123.965 23.7917 123.402 23.2605 122.163C22.8127 121.114 22.5699 119.981 22.198 118.756ZM21.3936 102.842C21.3101 102.826 21.2266 102.819 21.1431 102.804C19.5039 106.522 17.8571 110.24 16.104 114.209C18.1227 113.745 19.8606 113.365 21.5757 112.917C21.7578 112.871 21.9627 112.415 21.9551 112.156C21.8717 110.065 21.7502 107.974 21.6212 105.876C21.5605 104.872 21.4694 103.86 21.3936 102.842Z" fill="white"/>
<path d="M152.456 102.887C149.831 103.952 149.087 106.499 150.901 108.187C151.462 108.712 152.388 108.925 153.185 109.077C154.187 109.267 155.249 109.168 156.258 109.335C158.588 109.715 160.402 112.088 160.668 114.81C161.1 119.129 159.476 122.764 157.033 126.147C154.801 129.234 152.047 131.675 148.206 132.405C146.674 132.694 144.989 132.717 143.456 132.413C140.2 131.774 138.629 129.348 138.014 126.284C137.4 123.197 138.052 120.247 139.494 117.487C140.192 116.148 141.27 115.175 142.894 115.35C144.556 115.532 145.49 116.65 145.968 118.194C146.552 120.064 146.324 121.912 145.854 123.76C145.793 123.995 145.725 124.224 145.649 124.505C145.801 124.535 145.93 124.611 146.021 124.581C147.979 123.973 149.853 123.121 151.303 121.669C151.986 120.984 152.426 119.965 152.752 119.023C153.094 118.042 152.699 117.411 151.713 117.015C151.068 116.757 150.392 116.589 149.717 116.407C144.404 115 141.93 110.909 143.167 105.541C144.42 100.104 147.895 96.2795 152.282 93.1695C153.041 92.6297 154.073 92.47 154.961 92.1126C155.257 91.9909 155.553 91.8389 155.796 91.6412C156.934 90.6907 158.141 90.1888 159.643 90.7439C161.199 91.3142 162.186 92.4016 162.246 94.0212C162.307 95.6028 162.223 97.2376 161.882 98.7812C161.389 101.055 160.668 103.283 159.916 105.48C159.651 106.248 159.089 106.97 158.512 107.564C157.139 108.97 155.355 108.887 154.232 107.259C153.542 106.263 153.193 105.031 152.707 103.899C152.601 103.602 152.555 103.267 152.456 102.887Z" fill="white"/>
<path d="M66.4649 57.4392C68.7644 56.4887 70.7983 55.6523 72.8397 54.8083C74.2058 54.2456 75.0861 54.4357 76.0347 55.5763C77.3476 57.1579 77.4994 59.0512 77.378 60.9902C77.3476 61.5301 77.2034 62.0623 77.0896 62.5946C76.7329 64.2218 75.9588 65.5221 74.57 66.5486C71.838 68.5712 69.1135 70.5938 66.0399 72.0994C62.7691 73.7038 60.7504 72.4872 59.2174 69.8258C57.9652 67.6511 57.654 65.2864 57.8438 62.8151C58.4661 54.6486 60.1433 46.6342 61.3347 38.5437C62.2075 32.6128 63.1789 26.697 64.1123 20.7812C64.2489 19.9144 64.4462 19.0551 64.5828 18.1883C64.8029 16.7664 65.7364 16.0136 66.9962 15.6334C68.1952 15.2684 69.0376 15.9908 69.7586 16.8044C71.117 18.3404 71.6027 20.2489 71.5648 22.2107C71.5268 24.5375 71.2991 26.8719 70.9956 29.1758C70.4795 33.0766 69.8724 36.9697 69.2501 40.8477C68.4684 45.6913 67.6185 50.5197 66.7988 55.3482C66.7002 55.9717 66.6015 56.5876 66.4649 57.4392Z" fill="white"/>
<path d="M178.73 108.773C177.121 109.373 175.322 110.187 173.44 110.696C171.376 111.259 170.336 112.339 169.797 114.521C169.16 117.106 167.968 119.585 166.807 122.003C166.306 123.045 165.381 123.98 164.447 124.703C163.134 125.714 162.079 125.204 161.798 123.577C161.404 121.311 161.874 119.099 162.307 116.901C164.394 106.446 167.771 96.3555 171.042 86.2425C171.74 84.083 172.567 81.9615 173.432 79.8629C174.176 78.0532 175.322 77.4296 177.288 77.4905C177.796 77.5057 178.32 77.3688 178.821 77.4296C180.809 77.6882 182.259 79.361 182.494 81.5813C183.275 88.9418 184.08 96.2947 184.831 103.655C185.013 105.427 185.188 107.229 185.036 108.993C184.846 111.168 182.092 112.384 180.316 111.122C179.633 110.643 179.299 109.655 178.73 108.773ZM177.318 92.0214C177.242 92.0138 177.166 92.0138 177.098 92.0062C175.823 95.9982 174.548 99.9902 173.205 104.203C174.89 103.655 176.278 103.169 177.698 102.766C178.289 102.598 178.441 102.302 178.381 101.724C178.115 99.321 177.887 96.9106 177.629 94.5002C177.538 93.679 177.417 92.8502 177.318 92.0214Z" fill="white"/>
<path d="M176.149 61.9178C176.757 58.5569 177.402 55.2113 177.956 51.8428C178.525 48.383 179.079 44.9157 179.496 41.4332C179.792 38.9999 179.952 36.5439 179.982 34.0955C180.012 31.9816 179.823 29.8601 179.64 27.7463C179.549 26.7274 179.853 25.9822 180.657 25.3967C181.522 24.7656 182.448 24.7048 183.276 25.3207C184.315 26.0963 185.438 26.8718 186.19 27.8908C189.043 31.7383 191.874 35.601 194.492 39.6082C196.609 42.8475 196.511 46.3452 194.393 49.5616C192.8 51.9796 190.842 54.1619 189.081 56.4735C187.283 58.8383 185.545 61.2487 183.731 63.5983C182.851 64.7388 181.758 65.6589 180.369 66.1455C178.388 66.8375 176.582 65.6285 176.43 63.5298C176.392 63.0204 176.423 62.4957 176.423 61.9787C176.332 61.9482 176.241 61.933 176.149 61.9178ZM187.609 42.5737C189.225 42.5737 190.432 41.3875 190.44 39.7907C190.447 38.1939 189.233 36.9621 187.654 36.9469C186 36.9317 184.733 38.1787 184.763 39.7831C184.793 41.3723 186.015 42.5661 187.609 42.5737Z" fill="white"/>
<path d="M65.2279 114.856C65.4783 113.487 65.7895 111.761 66.1234 110.035C67.6184 102.332 69.1287 94.6371 70.6161 86.9344C71.1701 84.083 73.5758 82.4178 76.3458 83.0109C78.5618 83.4823 79.8823 85.2084 79.4801 87.4819C78.9337 90.6147 78.2052 93.7094 77.5525 96.8194C76.2472 103.016 74.9191 109.206 73.6365 115.403C73.1053 117.943 71.0031 119.6 68.6354 119.258C66.5028 118.946 65.3038 117.525 65.2279 114.856Z" fill="white"/>
</g>
<defs>
<clipPath id="clip0">
<rect width="199" height="193" fill="white"/>
</clipPath>
</defs>
</svg>
