<?xml version="1.0" encoding="utf-8"?>
<!-- Generator: Adobe Illustrator 24.1.0, SVG Export Plug-In . SVG Version: 6.00 Build 0)  -->
<svg version="1.1" id="Capa_1" xmlns="http://www.w3.org/2000/svg" xmlns:xlink="http://www.w3.org/1999/xlink" x="0px" y="0px"
	 viewBox="0 0 525.86 473.39" style="enable-background:new 0 0 525.86 473.39;" xml:space="preserve">
<style type="text/css">
	.st0{fill:#08070F;}
	.st1{fill:#1A1919;}
	.st2{fill:#FFFFFF;}
	.st3{fill:none;stroke:#FFFFFF;stroke-width:2;stroke-miterlimit:10;}
	.st4{clip-path:url(#SVGID_6_);}
</style>
<g>
	<g>
		<g>
			<g>
				<path class="st2" d="M0,0v473.39h525.86V0H0z M207.47,461.05H12.34V12.34h195.13V461.05z M513.51,461.05h-293.7V12.34h293.7
					V461.05z"/>
				<g>
					<g>
						<path class="st2" d="M114.42,69.21c0.46-0.38,1.43-1.21,0.65-2.79c-0.37-0.74-1.35-0.81-0.93-0.9
							c5.25-1.23,8.05-8.89,7.89-11.83c2.7,2.49,8.75,3.2,13.14-0.54c2.84-2.73,4.2-9.91-0.65-13.5c-2.48-1.83-6.88-1.99-9.63,0.13
							c-0.87-1.46-2.38-2.51-4-2.52c-0.02-0.51,0.07-3.97-1.98-6.21c-2.62-2.86-10-3.07-12.68,0.06c-5.3-1.33-12.18,1.12-11.8,9.41
							c-3.72-1.47-5.85-1.49-7.82-1.32c-1.85,0.18-4.32,1.83-5.18,2.97c-0.39,0.5-0.83,1.21-1.15,1.83c-0.6,1.19-1.07,2.76-0.9,4.5
							c0.28,2.95,1.73,5.44,3.88,6.62c2.96,1.62,6.71,1.4,8.04,1.19c1.03-0.23,2.13-0.6,3.29-1.82c0.34-0.35,0.59-0.91,1.09-0.92
							c-0.01,0.75-0.28,4.73,4.16,6.62c0.02,0.19,0.08,0.37,0.13,0.66c1.4,5.47,5.09,4.8,5.15,5.18c-1.63,0.99-0.94,2.42-0.55,3.17
							c2.49-0.77,4.34-0.87,4.93-0.87S111.92,68.44,114.42,69.21z"/>
						<g>
							<path class="st2" d="M126.87,85.73c-0.02-5.49,3.69-9.73,3.74-9.78c0.4-0.45,0.45-0.88,0.42-1.18
								c-0.07-0.51-0.47-0.85-0.55-0.86c-1.06-0.72-3.43-2.17-3.43-2.17l-0.19-0.17h-0.2c-0.26,0-0.45,0.15-0.78,0.4
								c-0.66,0.51-1.88,1.45-4.01,1.45c-0.38,0-0.76-0.03-1.18-0.09c-1.11-0.16-2.99-1.11-2.99-1.11
								c-0.61-0.32-1.37-0.65-1.68-0.79l-0.14-0.05c-3.06-1.27-5.66-1.37-6.39-1.37c-0.73,0-3.33,0.1-6.4,1.37l-0.14,0.05
								c-0.16,0.07-0.44,0.2-0.77,0.35l-1.86,0.88c-0.63,0.27-1.42,0.58-2.04,0.67c-0.4,0.05-0.79,0.09-1.17,0.09
								c-2.13,0-3.35-0.94-4.02-1.45c-0.33-0.24-0.53-0.4-0.77-0.4l-0.19,0.02l-0.11,0.07c-0.01,0-2.44,1.5-3.44,2.2
								c-0.16,0.07-0.55,0.4-0.63,0.92c-0.03,0.29,0.01,0.72,0.42,1.17c0.15,0.18,3.75,4.35,3.74,9.87c0.09,0.63,0.37,3.94-2.45,8.8
								c-0.13,0.25-3.23,5.92,0.16,10.89c0.02,0.05,2.55,4.67,9.97,4.67c0.61,0,6.08,0.1,7.97,3.6c0.08,0.14,0.96,1.54,1.31,2.23
								l0.43,0.84l0.42-0.84c0.36-0.68,1.22-2.07,1.35-2.26c1.85-3.47,7.33-3.57,7.94-3.57c7.31,0,9.92-4.6,9.92-4.6
								c3.47-5.09,0.22-10.93,0.2-10.96C126.5,89.75,126.77,86.44,126.87,85.73z M124,85.68l-9.57,6.85l3.66,10.82l-9.18-6.97
								l-9.18,6.97l3.66-10.82l-9.57-6.85l-0.03-0.01h11.81l3.31-10.96l3.31,10.96h11.8L124,85.68z"/>
							<g>
								<path class="st2" d="M129.02,70.68c0.19,0.15,0.42,0.34,0.68,0.54C129.45,71.03,129.21,70.84,129.02,70.68z"/>
								<path class="st2" d="M132.66,73.51c-0.37-0.28-0.8-0.6-1.22-0.93C131.88,72.92,132.28,73.22,132.66,73.51L132.66,73.51z"/>
								<path class="st2" d="M130.1,71.54c0.38,0.3,0.72,0.56,1.13,0.88C130.84,72.12,130.46,71.82,130.1,71.54z"/>
								<path class="st2" d="M190.87,131.2c-1.2-1.45-4.38-0.73-4.38-0.73c1.71-5.09-2.99-6.44-2.99-6.44
									c-1.68-0.44-2.79-0.13-3.51,0.36c0,0-0.03,0.02-0.05,0.04c-0.01,0.02-0.03,0.02-0.03,0.04c-0.13,0.09-0.23,0.16-0.34,0.27
									c-0.42,0.45-0.69,1.04-0.69,1.7c0,1.35,1.1,2.44,2.45,2.44c0.52,0,1.01-0.17,1.41-0.44c0.48-0.34,0.84-0.86,0.97-1.45
									c0.66,0.42,0.9,1.14,0.9,1.14c1.37,4.34-3.51,5.89-3.51,5.89c-10.77,3.23-17.36-2.33-17.36-2.33l1.88-1.01
									c0.65-0.29,1.24-0.37,1.71-0.37c-0.02,0.09-0.04,0.21-0.04,0.32c0,1.16,0.97,2.11,2.14,2.11c1.17,0,2.13-0.95,2.13-2.11
									c-0.01-0.88-0.43-1.31-0.43-1.31c-1.26-1.9-5.61-0.64-5.61-0.64c1.45-3.57,0.15-6.14,0.15-6.14
									c-2.01-4.12-6.75-2.83-6.75-2.83c-1.66,0.5-2,1.97-2,1.97c-0.64,3.26,2.06,3.54,2.06,3.54c1.95,0.1,1.97-1.48,1.97-1.48
									c0.25-1.52-1.9-1.6-1.9-1.6c1.82-3.19,7.54,2.05,3.8,6.66c-0.39,0.46-0.75,0.16-0.75,0.16c-6.71-3.32-10.03-5.49-11.66-6.72
									c-0.16-1.83-1.76-2.75-1.45-3.24c0.26-0.11,1.21,0.37,1.74-0.43c0.19-0.29,0.63-3.18,0.99-5.23
									c5.93,2.71,11,1.89,12.02,1.56c0.52-0.21,0.94-0.59,0.95-1.36c0.09-2.26-5.76-15.55-5.92-20.24c2.77,1.37,4.48-2.9,4.97-4.2
									c3.72,1.7,5,36.18,7.86,37.35c1.43,0.58,2-1.77,2.13-2.2c4.6-15.37,4.76-30.34,4.46-35.36c-0.46-7.87-1.1-14.9-2.99-21.38
									c-1.16-3.98-3.42-12.12-8.68-13.23c-2.46-0.52-4.33,1.77-4.29,3.84c0.04,1.79,1.27,2.65,0.72,4.4
									c-0.66,1.15-1.32,2.4-1.64,3.68c-0.32,1.28,0.82,1.8,0.45,3.17c-1.66-0.25-2.5,1.21-5.11,0.54
									c1.71-0.79,1.73-5.65-0.36-6.49c-0.31-0.13-0.67-0.17-0.73-0.46c0,0,0.68-0.72,1.01-1.42c1.2-2.46,1.19-4.63,0.24-6.26
									c0.86,0.07,1.77-1.52,1.89-2.78l0.02,0.01c0-0.01,0-0.07,0-0.1V52.4c0.02-0.33-0.04-1.45,0.46-2.48
									c0.16-0.34,0-0.73-0.29-0.88c-0.3-0.14-0.69-0.01-0.86,0.33c-0.52,1.09-1.75,0.48-1.23-0.61c0.16-0.35,0-0.73-0.3-0.87
									c-0.29-0.14-0.69-0.03-0.85,0.32c-0.5,1.05-1.69,0.46-1.2-0.59c0.16-0.34,0.01-0.73-0.28-0.87
									c-0.28-0.14-0.69-0.03-0.86,0.33c-0.51,1.08-1.75,0.48-1.24-0.59c0.16-0.36,0-0.74-0.29-0.89
									c-0.29-0.13-0.68-0.02-0.85,0.33c-0.55,1.14-0.93,1.62-1.5,2.08c-1.16,0.21-0.86,1.54-0.72,2.45
									c-2.18-0.47-3.82,1.19-3.88,2.68h-0.25c-1.8,0.04-3.52,0.97-3.38,2.63c0.06,0.94,1.17,2.11,1.59,2.13
									c0.19-0.06-0.1-1,0.84-1.06c0.85-0.05,2.12,0.68,2.28,1.49c0.19,0.92-0.57,3.15,2.37,3.47c0,0-0.02,0.45-0.06,0.93
									c-1.05-0.07-1.33-0.13-2.37,0.03c-1.85,0.3-4.4,1.34-5.02,3.18c-0.12,0.31-0.17,0.95-0.12,1.39
									c0.04,0.38,0.39,0.85,0.34,1.31c-0.03,0.22-0.43,0.69-0.58,0.83c-0.77,0.81-2.21,1.58-3.48,1.65
									c-1.4,0.07-2.77-0.83-3.32-1.59c-1.87-2.51,0.55-6.85,0.51-8.47c-0.11-4.31-5.55-1.74-7.7-0.62
									c-2.57,1.35-4.61,3.52-6.34,5.65c-0.95,1.17-2.01,2.64-2.53,3.89c-0.1,0.23-0.3,0.27-0.53,0.26c1.1,0.5,3.05,1.22,4.58,1.24
									c0,0,3.01,0.41,5.16-1.39c0,0,0.31-0.27,0.74-0.27c0.31,0,0.58,0.13,0.82,0.35c0.02,0.03,0.3,0.25,0.62,0.51
									c0.19,0.15,0.43,0.34,0.68,0.54c0.13,0.1,0.25,0.2,0.39,0.31c0.36,0.28,0.74,0.58,1.13,0.88c0.07,0.05,0.14,0.11,0.21,0.16
									c0.42,0.33,0.84,0.65,1.22,0.93l0,0c0.44,0.33,0.86,0.64,1.11,0.81l0.02,0.02c0.04,0.04,0.15,0.14,0.19,0.3
									c0.01,0.16-0.06,0.35-0.21,0.54c-0.01,0.01-0.24,0.26-0.58,0.7c-0.72,0.91-1.94,2.71-2.87,4.9c1.02,1.77,2.72,3.88,5.17,3.9
									c1.95,0.02,2.75-0.96,3.04-2.21c0.04,0.03,0.14,0.16,0.16,0.16c0.23-0.21,1.31,5.62,2.73,7.2
									c-1.33,0.62-3.39,2.71-2.27,8.47c-1.1-0.88-3.12-2.4-4.08-3.4c-0.58-1.19-1.71-4-4.97-4.28c0.47,1.44,1.15,3.07,2.2,4.87
									c0.02,0.05,2.01,3.7,1.39,7.85c1.36-1.4,1.15-5.24,1.15-5.24c0.05-0.05,0.25-0.11,0.3-0.13c0.28-0.02,1.65,2.65,4,3.2
									c3.08,5.26,6.54,8.59,9.88,10.71c-0.06,1.27,0.09,4.3-0.73,4.3c-2.63,0.58-5.05-1.19-7.37-1.07c-0.2-0.09-0.4-0.19-0.4-0.19
									c-9.97-4.8-23.12,5.51-25.31,7.51c-1.15,1.06-2.49-0.39-2.49-0.39c-0.79-0.99-1.82-1.44-2.83-1.33
									c-1-0.12-2.04,0.33-2.82,1.33c0,0-1.34,1.45-2.5,0.39c-2.07-1.9-13.99-11.12-23.72-7.97c-0.03-0.53-1.34-0.8-1.71-0.94
									c-0.77-0.22-1.45-0.83-1.93-1.07c-1.06-0.53-2.78-0.2-3.99-0.34c-0.47-0.07-1.13-0.32-1.55-0.57
									c-1.56-0.96-3.34-2.13-4.33-3.54c-0.16-0.23-0.55-0.76-0.62-0.85c-0.48-0.61-0.72-1.06-1.09-2.06
									c-0.53-1.92,0.3-3.99,0.58-5.93c0.21-1.44,0.16-1.53,0.29-3.08c6.18-2.12,8.71-6.76,10.15-9.23
									c0.14-0.19,0.52-0.98,0.52-0.98c0.27,0.04,0.55,0.06,0.84,0.07c2.47,0.02,4.14-1.36,6.84-1.03c0,0.15,0.36,1.29,2.12,2.01
									c0.05,1.77,0.18,3.24,0.85,4.61c0.15,0.24,0.33,0.44,0.47,0.64c1.16-2.85,1.46-5.07,1.5-6.41
									c-0.08-0.12-0.16-0.28-0.21-0.54c-0.58-3.01-1.98-3.84-3.31-4.6c-0.65-0.35-1.37-0.46-2-0.92c-0.96-0.66-1.98-1.37-2.62-2.6
									c0,0,0.32-0.3,0.65-0.72c1.73-1.81,2.59-4.47,3.22-7.38c1.32-1.81,4.99-1.1,6.39-0.84c0.36,0.04,0.97,0.18,1.25,0.4
									c0.39,0.27,0.48,0.9,1.03,1.13c0.58,0.24,1.24,0.06,1.94,0c0.26,0.29,0.4,0.7,0.58,1.07c0,0,0.19,0.34,0.55,0.72
									c1.71-0.03,4.02-0.94,4.99-1.43c-0.12-0.07-0.22-0.15-0.27-0.23c-0.77-0.98-1.93-2.07-3.01-2.24
									c-1.37-0.23-1.65-1.45-2.96-1.71c-0.33-0.09-1.49-0.26-1.89-0.12c-2.9,0.38-4.94-0.72-7.65-0.91
									c-2.57-0.18-2.65,1.58-3.59,3.03c-0.35,0.54-0.76,1.19-1.19,1.59c-0.71,0.69-1.53,0.71-2.4,1.36l-0.4-1.07
									c-0.24-0.89-0.57-1.81-1.15-2.69c-1.4-2.19-2.99-3.89-6.1-4.61c-0.59-0.24-0.68-0.28-1.08-0.59c-0.51-0.39-0.15-0.86,0-0.91
									c0.88-0.51,2.41-0.33,3.42-0.79c2.48-1.15,1.6-3.25,0.63-3.42c-1.24-0.23-3.5-0.83-3.94-1.09c-0.6-0.38-1.64-2.27-2.63-2.73
									c-1.09-0.29-0.71-2.07-1.72-2.46c-0.43-0.07-1.07,0.14-1.77,0.5c-0.04-0.37-0.31-2.39-1.42-3.05
									c-0.83-0.47-1.13,0.26-1.1,0.75c0.05,0.43,1.22,1.02,1.44,2.93c-0.2,0.13-0.39,0.24-0.6,0.38c-0.16-0.79-0.51-2-1.32-2.48
									c-0.83-0.48-1.13,0.26-1.09,0.74c0.04,0.41,1.07,0.95,1.4,2.56c-0.25,0.2-0.48,0.41-0.71,0.62
									c-1.66-0.46-2.11-1.59-2.53-1.66c-0.47-0.1-1.23,0.14-0.84,1.01c0.41,0.88,1.65,1.36,2.41,1.58
									c-0.17,0.18-0.31,0.36-0.46,0.55c-1.93-0.39-2.4-1.64-2.83-1.74c-0.47-0.09-1.24,0.15-0.85,1.02
									c0.56,1.23,2.75,1.7,2.95,1.74c-0.31,0.52-0.52,1-0.44,1.34c-1.5-0.17-4.17,0.63-3.66,2.4c0.5,0.36,2.27-1.09,3.9-0.28
									c1.08,1.67,2.8,1.74,3.19,2.05c0.6,0.48,0.7,1.34,0.97,2.12c0.48,1.44,1.49,2.6,2.33,3.88c0.92,1.4,1.89,2.88,2.85,4.1
									c0.12,0.33,0.22,0.68,0.16,1.2c-1.1,1.75-4.4,3.8-5.76,5.07c-1.37,1.29-14.29,11.12-15.91,15.41
									c-0.36,0.96-0.57,2.19-0.51,3.47c-0.79,0.42-2.52,1.11-3.07,0.33c-1-1.39,0.95-2.44,0.52-3.78
									c-0.2-0.52-0.96-0.86-1.43-0.52c-3.22,2.31-1.56,6.4,0.48,7.33c2.24,0.93,2.56-1.48,4.29-0.51c0.41,0.23,4.51,3.9,3.82,6.79
									c-0.04,0.15-0.2,0.57-0.28,0.68c-0.9,1.11-2.4,1.98-3.42,3.02c-2.13,1.35,2.02,9.85,1.68,14.22
									c-0.24,1.66,1.38,1.46,2.37,4.06c-1.01,0.03-2.01,0.28-2.51,1.04c0,0-0.43,0.43-0.43,1.31c0,1.16,0.95,2.11,2.12,2.11
									c1.18,0,2.13-0.95,2.13-2.11c0-0.11-0.01-0.23-0.02-0.32c0.46,0,1.06,0.08,1.71,0.37l1.88,1.01c0,0-6.59,5.56-17.35,2.33
									c0,0-4.88-1.56-3.51-5.89c0,0,0.24-0.72,0.9-1.14c0.13,0.59,0.48,1.11,0.97,1.45c0.4,0.27,0.88,0.44,1.41,0.44
									c1.34,0,2.44-1.1,2.44-2.44c0-0.65-0.25-1.25-0.67-1.7c-0.11-0.11-0.21-0.18-0.34-0.27c0-0.02-0.01-0.02-0.01-0.02
									c-0.04-0.03-0.05-0.04-0.05-0.04c-0.74-0.5-1.84-0.82-3.53-0.37c0,0-4.7,1.35-2.99,6.44c0,0-3.17-0.72-4.37,0.73
									c0,0-0.41,0.46-0.38,1.2v0.03v0.03c0.03,0.3,0.12,0.64,0.34,1.04c0.33,0.47,0.88,0.79,1.51,0.79c0.58,0,1.09-0.27,1.43-0.68
									c0-0.02,0.01-0.02,0.01-0.02c0.13-0.16,0.52-0.39,1.09,0.21c7.14,7.44,18.78,4.37,25.23-0.61c0,0,3.58-3.6,7.56-5.81
									c1.55,0.67,3.2,1.16,4.8,1.74c-0.12,2.31,0.36,5.63,2.95,9.49c0,0-1.82,3.37-4.89,1.52c0,0-2.27-1.75-0.34-3.86
									c0,0,1.29-1.08,1.85,0.27c-0.66,0.04-1.19,0.58-1.19,1.25c0,0.7,0.55,1.24,1.24,1.24c0.68,0,1.21-0.52,1.24-1.17
									c0.06-0.51,0.09-1.8-1.02-2.73c0,0-0.98-1.06-2.83-0.77c-2.71,0.42-4.24,6.09,1.11,8.43c0,0,4.2,1.92,6.37-1.22
									c0,0-0.03-0.45,0.78,0.33c4.45,4.31,14.39,3.06,18.33,0.13c0,0,1-0.63,2.09-1.15c0.05,1.66,1.41,3.02,3.1,3.02
									c1.7,0,3.09-1.4,3.09-3.1c0-1.53-1.1-2.79-2.55-3.05c-0.07-0.02-2.04-0.58-4.92,1.16c0,0-3.05,1.91-2.87,1.62
									c1.03-1.61,1.66-3.79,2.1-6.11c4.33,0.48,8.78,0.79,13.38,0.89c-0.06,1.34-0.24,2.98-0.76,4.23c0,0-1.62,0.67-1.66,1.82
									c0,0-0.18,0.84,1.26,2c0,0,1.05,1.17,1.36,2.07c0,0,0.08,1.26,1.82,1.26c0.13,0,0.23-0.02,0.33-0.04
									c0.11,0.02,0.22,0.04,0.34,0.04c1.73,0,1.82-1.26,1.82-1.26c0.31-0.9,1.36-2.07,1.36-2.07c1.44-1.16,1.26-2,1.26-2
									c-0.03-1.15-1.67-1.82-1.67-1.82c-0.51-1.25-0.7-2.89-0.75-4.22c4.61-0.1,9.06-0.41,13.39-0.89c0.44,2.32,1.07,4.5,2.1,6.1
									c0.18,0.29-2.86-1.62-2.86-1.62c-2.89-1.75-4.88-1.19-4.94-1.16c-1.45,0.26-2.54,1.52-2.54,3.05c0,1.71,1.38,3.1,3.09,3.1
									c1.69,0,3.05-1.36,3.09-3.02c1.1,0.52,2.1,1.15,2.1,1.15c3.93,2.93,13.88,4.18,18.33-0.13c0.81-0.78,0.77-0.33,0.77-0.33
									c2.17,3.14,6.38,1.22,6.38,1.22c5.34-2.35,3.8-8.01,1.11-8.43c-1.85-0.3-2.84,0.77-2.84,0.77c-1.1,0.94-1.08,2.23-1.01,2.73
									c0.03,0.65,0.57,1.17,1.24,1.17c0.69,0,1.25-0.55,1.25-1.24c0-0.67-0.54-1.21-1.19-1.25c0.55-1.35,1.85-0.27,1.85-0.27
									c1.93,2.11-0.34,3.86-0.34,3.86c-3.07,1.85-4.89-1.52-4.89-1.52c2.58-3.85,3.06-7.15,2.95-9.47
									c1.61-0.58,3.27-1.08,4.82-1.75c3.98,2.21,7.54,5.8,7.54,5.8c6.45,4.98,18.09,8.05,25.23,0.61c0.57-0.6,0.96-0.37,1.09-0.21
									c0,0,0.02,0,0.02,0.02c0.34,0.41,0.86,0.68,1.44,0.68c0.63,0,1.17-0.32,1.51-0.79c0.22-0.39,0.31-0.74,0.34-1.04v-0.01
									v-0.04C191.28,131.66,190.87,131.2,190.87,131.2z M57.67,128.96c0,0-0.35,0.31-0.74-0.16c-3.76-4.61,1.98-9.85,3.8-6.66
									c0,0-2.16,0.08-1.92,1.6c0,0,0.04,1.57,1.98,1.48c0,0,2.7-0.28,2.06-3.54c0,0-0.35-1.47-2.01-1.97c0,0-4.74-1.29-6.75,2.83
									c0,0-0.41,0.99-0.47,2.48c-0.55-0.44-1.17-0.79-1.84-0.9c-0.89-0.93-2.43-8.5-1.44-12.38c7.24-1.52,9.48-7.5,9.81-9.19
									c1.47,0.48,2.33,2.17,2.4,2.89c0.12,0.98-0.34,2,0.24,2.8c0.84,1.18,2.72,2.25,3.88,3.03c0.39,0.25,5.7,4.36,6.38,4.5
									c0.76,0.16,1.22-0.41,1.89-0.29c0.24,0.05,0.4,0.22,0.58,0.36c0,0,0.38,0.38,0.92,0.77c-1.39,0.92-3.21,2.25-5.61,4.38
									C70.81,120.98,68.97,123.36,57.67,128.96z M75.47,134.11c0,0-0.46,1.99-0.82,2.42c0,0-1.59-2.85-1.72-6.55
									c1.2,0.39,2.39,0.81,3.61,1.16C76.15,132.07,75.75,132.99,75.47,134.11z M89.66,140.87c0,0-7.57,2.97-12.77-2.38
									c0,0,0.37-3.35,1.78-6.85c4.21,1.08,8.6,1.89,13.13,2.47C91.49,136.98,90.86,140.69,89.66,140.87z M82.18,126.16
									c1.5-1.41,3.42-2.37,5.85-2.41c0,0,3.38-0.04,3.99,4.18C88.34,127.42,85.02,126.81,82.18,126.16z M89.72,121.36
									c-0.41,0.09-5.37,0.42-9.49,4.31c-2.27-0.57-4.32-1.14-5.92-1.64c0.33-0.64,0.67-1.27,1.16-1.9c0,0,6.42-7.78,17.92-3.4
									C93.61,118.81,92.88,120.67,89.72,121.36z M94.99,128.34c0.48-4.58,0.82-8.45,2.48-8.44c0,0,1.2,0.04,2.02,1.16
									c1.44,2,5.33,4.4,7.11,8.03C102.44,128.99,98.51,128.75,94.99,128.34z M113.19,129.1c1.78-3.64,5.67-6.03,7.12-8.03
									c0.82-1.12,2.02-1.16,2.02-1.16c1.67-0.02,2.01,3.86,2.49,8.44C121.28,128.75,117.35,129,113.19,129.1z M126.41,118.73
									c11.5-4.37,17.91,3.4,17.91,3.4c0.5,0.63,0.84,1.27,1.17,1.91c-1.6,0.51-3.65,1.07-5.92,1.64c-4.12-3.9-9.09-4.23-9.5-4.32
									C126.92,120.67,126.17,118.81,126.41,118.73z M131.77,123.75c2.44,0.04,4.36,1.01,5.86,2.42c-2.84,0.65-6.18,1.25-9.86,1.77
									C128.39,123.7,131.77,123.75,131.77,123.75z M130.14,140.87c-1.2-0.18-1.83-3.88-2.14-6.76c4.53-0.58,8.92-1.39,13.13-2.47
									c1.41,3.49,1.77,6.84,1.77,6.84C137.7,143.83,130.14,140.87,130.14,140.87z M145.14,136.53c-0.35-0.43-0.83-2.42-0.83-2.42
									c-0.28-1.12-0.68-2.03-1.07-2.96c1.22-0.34,2.41-0.76,3.61-1.15C146.73,133.69,145.14,136.53,145.14,136.53z"/>
							</g>
						</g>
					</g>
				</g>
			</g>
		</g>
		<g>
			<g>
				<path class="st2" d="M256.28,443.32c-3.04,1.37-5.38,2.01-8.15,2.01c-6.71,0-10.15-4.68-10.15-11.82
					c0-6.85,3.44-11.38,10.45-11.38c3.41,0,5.65,0.83,7.41,1.97l-1.84,3.34c-1.27-0.87-3.24-1.44-5.51-1.44
					c-4.08,0-5.91,2.98-5.91,7.45c0,5.31,1.97,8.15,5.85,8.15c1.43,0,2.74-0.2,3.81-0.7v-4.17h-3.07l-0.27-3.24h7.38V443.32z"/>
			</g>
			<g>
				<path class="st2" d="M274.53,436.78c0,5.58-2.81,8.55-7.68,8.55c-4.91,0-7.68-2.94-7.68-8.55c0-4.81,2.67-8.48,7.68-8.48
					C271.79,428.3,274.53,431.97,274.53,436.78z M270.05,436.78c0-3.94-1.17-5.31-3.21-5.31c-2.04,0-3.17,1.4-3.17,5.31
					c0,3.81,1.03,5.34,3.17,5.34C268.99,442.12,270.05,440.69,270.05,436.78z"/>
			</g>
			<g>
				<path class="st2" d="M281.83,430.3c0.74-1,2.5-2,4.34-2c3.84,0,6.61,2.73,6.61,8.48c0,5.64-3.34,8.55-7.15,8.55
					c-2.34,0-3.71-0.9-4.74-2.31l-0.8,1.97h-2.34v-23.04h4.37v5.71L281.83,430.3z M282.13,440.45c0.67,0.9,1.81,1.67,2.97,1.67
					c1.9,0,3.31-1.4,3.31-5.34c0-3.91-1.24-5.28-3.23-5.28c-1.1,0-2.31,0.57-3.04,1.3V440.45z"/>
			</g>
			<g>
				<path class="st2" d="M297.41,445v-13.22l-1.9-0.4v-2.74h6.24V445H297.41z M297.28,421.95h4.41v3.97h-4.41V421.95z"/>
			</g>
			<g>
				<path class="st2" d="M309.46,437.98c0,2.6,1.47,4.04,4.21,4.04c1.67,0,3.37-0.63,4.81-1.37l0.84,3.07
					c-1.37,0.74-3.61,1.61-6.18,1.61c-5.04,0-8.05-3.14-8.05-8.55c0-5.04,2.44-8.48,7.68-8.48c4.94,0,6.88,3.67,6.88,7.78v1.9
					H309.46z M312.54,431.5c-2.17,0-3.07,1.97-3.07,3.91h5.98C315.44,433.31,314.81,431.5,312.54,431.5z"/>
			</g>
			<g>
				<path class="st2" d="M332.23,432.27c-0.53-0.17-1.3-0.26-2.04-0.26c-1.17,0-2.2,0.5-2.94,1.1V445h-4.34v-16.36h3.04l0.47,2.2
					h0.1c0.5-1.17,1.97-2.51,3.91-2.51c0.87,0,1.54,0.13,1.9,0.24L332.23,432.27z"/>
			</g>
			<g>
				<path class="st2" d="M345.01,445v-9.72c0-2.47-0.94-3.64-2.93-3.64c-1.14,0-2.11,0.5-2.87,1.01V445h-4.37v-16.36h3l0.67,1.87
					c0.93-1.1,2.73-2.2,5.17-2.2c4.14,0,5.78,2.43,5.78,6.58V445H345.01z"/>
			</g>
			<g>
				<path class="st2" d="M367.7,436.78c0,5.58-2.81,8.55-7.68,8.55c-4.91,0-7.68-2.94-7.68-8.55c0-4.81,2.67-8.48,7.68-8.48
					C364.97,428.3,367.7,431.97,367.7,436.78z M363.23,436.78c0-3.94-1.17-5.31-3.21-5.31c-2.04,0-3.17,1.4-3.17,5.31
					c0,3.81,1.03,5.34,3.17,5.34C362.16,442.12,363.23,440.69,363.23,436.78z"/>
			</g>
			<g>
				<path class="st2" d="M388.9,429.9c-0.27-0.94-0.4-1.77-0.4-3.01v-4.94h4.34V445h-3.54l-0.5-1.8c-0.67,1-2.24,2.14-4.34,2.14
					c-3.71,0-6.68-2.67-6.68-8.52c0-5.41,3.07-8.52,7.05-8.52C386.59,428.3,387.99,428.9,388.9,429.9z M388.5,432.37
					c-0.67-0.41-1.71-0.8-2.97-0.8c-2.07,0-3.37,1.41-3.37,5.21c0,3.91,1.23,5.38,3.31,5.38c1.1,0,2.2-0.54,3.04-1.41V432.37z"/>
			</g>
			<g>
				<path class="st2" d="M400.5,437.98c0,2.6,1.47,4.04,4.21,4.04c1.67,0,3.37-0.63,4.81-1.37l0.83,3.07
					c-1.37,0.74-3.61,1.61-6.18,1.61c-5.04,0-8.05-3.14-8.05-8.55c0-5.04,2.44-8.48,7.68-8.48c4.94,0,6.88,3.67,6.88,7.78v1.9H400.5
					z M403.58,431.5c-2.17,0-3.07,1.97-3.07,3.91h5.98C406.48,433.31,405.85,431.5,403.58,431.5z"/>
			</g>
			<g>
				<path class="st2" d="M430.58,445.33c-6.35,0-9.75-4.21-9.75-11.72c0-7.01,3.37-11.49,9.75-11.49c3.07,0,5.84,0.67,7.68,1.9
					l-1.67,3.54c-1.17-0.9-3.2-1.57-5.54-1.57c-3.74,0-5.61,2.64-5.61,7.58c0,5.21,1.87,7.88,5.55,7.88c2.2,0,4.41-0.94,5.94-2.07
					l1.41,3.54C436.09,444.46,433.55,445.33,430.58,445.33z"/>
			</g>
			<g>
				<path class="st2" d="M441.25,445v-23.04h4.37V428c0,1.13-0.23,2.04-0.43,2.54c0.9-1.14,2.41-2.24,4.71-2.24
					c4.68,0,5.98,2.43,5.98,6.58V445h-4.44v-9.75c0-2.34-0.94-3.61-2.9-3.61c-1.14,0-2.17,0.47-2.91,1.01V445H441.25z"/>
			</g>
			<g>
				<path class="st2" d="M460.74,445v-13.22l-1.9-0.4v-2.74h6.25V445H460.74z M460.61,421.95h4.41v3.97h-4.41V421.95z"/>
			</g>
			<g>
				<path class="st2" d="M469.08,440.65v-18.7h4.31v18.47c0,1.37,0.83,1.57,2.64,1.57v3.07c0,0-1.27,0.27-2.41,0.27
					C470.29,445.33,469.08,443.56,469.08,440.65z"/>
			</g>
			<g>
				<path class="st2" d="M482.6,437.98c0,2.6,1.47,4.04,4.21,4.04c1.67,0,3.37-0.63,4.81-1.37l0.83,3.07
					c-1.37,0.74-3.61,1.61-6.17,1.61c-5.04,0-8.05-3.14-8.05-8.55c0-5.04,2.44-8.48,7.68-8.48c4.94,0,6.88,3.67,6.88,7.78v1.9H482.6
					z M485.68,431.5c-2.17,0-3.07,1.97-3.07,3.91h5.98C488.58,433.31,487.94,431.5,485.68,431.5z"/>
			</g>
		</g>
	</g>
	<g>
		<g>
			<path class="st2" d="M249.9,57.32c-3.81,0-7.03-1.36-9.32-3.05l2.12-4.36c1.65,1.44,4.66,2.75,7.28,2.75
				c2.63,0,4.4-1.61,4.4-3.77c0-6.06-13.21-3.05-13.21-13.13c0-4.32,3.39-7.88,10.08-7.88c3.35,0,6.18,0.72,8.51,1.95l-1.86,4.45
				c-1.57-0.93-4.11-1.57-6.73-1.57c-2.58,0-4.28,0.85-4.28,2.96c0,5.12,13.3,3.13,13.3,12.87
				C260.19,53.08,256.42,57.32,249.9,57.32z"/>
			<path class="st2" d="M278.69,56.89l-0.85-2.54c-0.97,1.27-3.18,2.96-6.48,2.96c-5.17,0-7.54-2.88-7.54-8.6V36.14h5.51v12.62
				c0,3.18,1.14,4.32,3.64,4.32c1.44,0,2.75-0.55,3.73-1.23V36.14h5.63v20.75H278.69z"/>
			<path class="st2" d="M291.86,38.26c0.93-1.27,3.18-2.54,5.51-2.54c4.87,0,8.38,3.47,8.38,10.76c0,7.16-4.23,10.84-9.06,10.84
				c-2.96,0-4.7-1.14-6.01-2.92l-1.02,2.5h-2.96V27.67h5.55v7.24L291.86,38.26z M292.24,51.13c0.85,1.14,2.29,2.12,3.77,2.12
				c2.41,0,4.19-1.78,4.19-6.78c0-4.95-1.57-6.69-4.11-6.69c-1.4,0-2.92,0.72-3.85,1.65V51.13z"/>
			<path class="st2" d="M314.51,41.6c0,3.22,8.98,2.24,8.98,9.02c0,3.77-2.79,6.69-8.17,6.69c-2.5,0-4.83-0.72-6.23-1.52l1.14-3.85
				c0.97,0.68,3.01,1.44,4.91,1.44c1.82,0,3.05-1.02,3.05-2.29c0-3.73-8.85-2.5-8.85-9.57c0-3.05,2.33-5.8,7.92-5.8
				c2.16,0,4.4,0.42,5.84,1.02l-0.76,4.02c-1.4-0.63-3.18-1.06-5-1.06C315.45,39.7,314.51,40.42,314.51,41.6z"/>
			<path class="st2" d="M332.38,48c0,3.3,1.86,5.12,5.34,5.12c2.12,0,4.28-0.8,6.1-1.74l1.06,3.9c-1.74,0.93-4.57,2.03-7.83,2.03
				c-6.39,0-10.2-3.98-10.2-10.84c0-6.39,3.09-10.76,9.74-10.76c6.27,0,8.72,4.66,8.72,9.87V48H332.38z M336.28,39.78
				c-2.75,0-3.9,2.5-3.9,4.96h7.58C339.96,42.07,339.16,39.78,336.28,39.78z"/>
			<path class="st2" d="M365.79,55.49c-1.19,0.64-3.98,1.82-7.11,1.82c-6.18,0-9.91-3.51-9.91-10.8c0-6.78,3.73-10.8,9.87-10.8
				c2.75,0,5.12,0.55,7.11,1.69l-1.44,3.77c-1.48-0.89-3.39-1.27-5.21-1.27c-2.88,0-4.7,1.95-4.7,6.61c0,4.7,1.74,6.61,4.74,6.61
				c2.16,0,4.28-0.8,5.63-1.57L365.79,55.49z"/>
			<path class="st2" d="M381.04,40.76c-0.68-0.21-1.65-0.34-2.58-0.34c-1.48,0-2.8,0.64-3.73,1.4v15.08h-5.5V36.14h3.85l0.59,2.79
				h0.13c0.64-1.48,2.5-3.18,4.95-3.18c1.1,0,1.95,0.17,2.41,0.3L381.04,40.76z"/>
			<path class="st2" d="M387.85,48c0,3.3,1.86,5.12,5.34,5.12c2.12,0,4.28-0.8,6.1-1.74l1.06,3.9c-1.74,0.93-4.57,2.03-7.83,2.03
				c-6.39,0-10.21-3.98-10.21-10.84c0-6.39,3.09-10.76,9.74-10.76c6.27,0,8.72,4.66,8.72,9.87V48H387.85z M391.75,39.78
				c-2.75,0-3.9,2.5-3.9,4.96h7.58C395.43,42.07,394.63,39.78,391.75,39.78z"/>
			<path class="st2" d="M412.41,57.32c-3.68,0-6.1-1.74-6.1-6.94V40.08h-3.09v-3.94h3.09v-3.6l5.46-1.78v5.38h5.55v3.94h-5.55v10.16
				c0,1.44,0.72,2.37,2.2,2.37c1.14,0,2.33-0.34,3.18-0.76l0.85,4.07C416.78,56.64,414.62,57.32,412.41,57.32z"/>
			<path class="st2" d="M433.5,56.89l-0.76-2.46c-1.06,1.44-3.13,2.88-6.06,2.88c-4.15,0-6.94-2.67-6.94-6.65
				c0-3.85,2.84-6.14,7.83-6.14h4.36v-1.06c0-2.67-1.52-3.52-3.64-3.52c-2.46,0-4.53,0.64-6.23,1.4l-1.4-3.94
				c2.07-0.89,4.91-1.69,8.17-1.69c5.89,0,8.43,2.71,8.43,8v13.17H433.5z M431.93,47.83h-3.43c-2.29,0-3.35,1.1-3.35,2.67
				c0,1.91,1.02,3.05,3.09,3.05c1.31,0,2.67-0.59,3.68-1.4V47.83z"/>
			<path class="st2" d="M453.66,40.76c-0.68-0.21-1.65-0.34-2.58-0.34c-1.48,0-2.79,0.64-3.73,1.4v15.08h-5.51V36.14h3.85l0.59,2.79
				h0.13c0.63-1.48,2.5-3.18,4.95-3.18c1.1,0,1.95,0.17,2.41,0.3L453.66,40.76z"/>
			<path class="st2" d="M455.48,32.92l-0.55-3.18l10.71-3.01l0.72,4.07L455.48,32.92z M458.48,56.89V40.12l-2.41-0.51v-3.47h7.92
				v20.75H458.48z"/>
			<path class="st2" d="M481.69,56.89l-0.76-2.46c-1.06,1.44-3.13,2.88-6.05,2.88c-4.15,0-6.95-2.67-6.95-6.65
				c0-3.85,2.84-6.14,7.83-6.14h4.36v-1.06c0-2.67-1.52-3.52-3.64-3.52c-2.46,0-4.53,0.64-6.23,1.4l-1.4-3.94
				c2.07-0.89,4.91-1.69,8.17-1.69c5.89,0,8.43,2.71,8.43,8v13.17H481.69z M480.12,47.83h-3.43c-2.29,0-3.35,1.1-3.35,2.67
				c0,1.91,1.02,3.05,3.09,3.05c1.31,0,2.67-0.59,3.68-1.4V47.83z"/>
			<path class="st2" d="M254.81,79.44c-0.34-1.19-0.51-2.24-0.51-3.81v-6.27h5.5v29.22h-4.49l-0.63-2.29
				c-0.85,1.27-2.84,2.71-5.5,2.71c-4.7,0-8.47-3.39-8.47-10.8c0-6.86,3.9-10.8,8.94-10.8C251.89,77.41,253.67,78.17,254.81,79.44z
				 M254.3,82.58c-0.85-0.51-2.16-1.02-3.77-1.02c-2.63,0-4.28,1.78-4.28,6.61c0,4.95,1.57,6.82,4.19,6.82c1.4,0,2.8-0.68,3.85-1.78
				V82.58z"/>
			<path class="st2" d="M269.33,89.69c0,3.3,1.86,5.12,5.34,5.12c2.12,0,4.28-0.8,6.1-1.74l1.06,3.9c-1.74,0.93-4.57,2.03-7.83,2.03
				c-6.39,0-10.21-3.98-10.21-10.84c0-6.39,3.09-10.76,9.74-10.76c6.27,0,8.72,4.66,8.72,9.87v2.41H269.33z M273.23,81.48
				c-2.75,0-3.9,2.5-3.9,4.95h7.58C276.91,83.76,276.11,81.48,273.23,81.48z"/>
			<path class="st2" d="M304.14,88.63h-3.13v9.95h-5.55V70h8.68c5.84,0,10.88,2.79,10.88,8.94
				C315.02,84.44,310.87,88.63,304.14,88.63z M304.01,74.7h-3.01v9.57h3.01c3.26,0,5.12-1.99,5.12-5.12
				C309.14,76.23,307.19,74.7,304.01,74.7z"/>
			<path class="st2" d="M321.37,89.69c0,3.3,1.86,5.12,5.34,5.12c2.12,0,4.28-0.8,6.1-1.74l1.06,3.9c-1.74,0.93-4.57,2.03-7.83,2.03
				c-6.39,0-10.2-3.98-10.2-10.84c0-6.39,3.09-10.76,9.74-10.76c6.27,0,8.72,4.66,8.72,9.87v2.41H321.37z M325.27,81.48
				c-2.75,0-3.9,2.5-3.9,4.95h7.58C328.96,83.76,328.15,81.48,325.27,81.48z"/>
			<path class="st2" d="M343.06,83.3c0,3.22,8.98,2.24,8.98,9.02c0,3.77-2.79,6.69-8.17,6.69c-2.5,0-4.83-0.72-6.23-1.52l1.14-3.85
				c0.97,0.68,3.01,1.44,4.91,1.44c1.82,0,3.05-1.02,3.05-2.29c0-3.73-8.85-2.5-8.85-9.57c0-3.05,2.33-5.8,7.92-5.8
				c2.16,0,4.4,0.42,5.84,1.02l-0.76,4.02c-1.4-0.64-3.18-1.06-5-1.06C343.99,81.39,343.06,82.11,343.06,83.3z"/>
			<path class="st2" d="M372.7,97.19c-1.19,0.63-3.98,1.82-7.11,1.82c-6.18,0-9.91-3.52-9.91-10.8c0-6.78,3.73-10.8,9.87-10.8
				c2.75,0,5.12,0.55,7.11,1.69l-1.44,3.77c-1.48-0.89-3.39-1.27-5.21-1.27c-2.88,0-4.7,1.95-4.7,6.61c0,4.7,1.74,6.61,4.74,6.61
				c2.16,0,4.28-0.8,5.63-1.57L372.7,97.19z"/>
			<path class="st2" d="M388.96,98.59l-0.76-2.46c-1.06,1.44-3.13,2.88-6.05,2.88c-4.15,0-6.94-2.67-6.94-6.65
				c0-3.85,2.84-6.14,7.83-6.14h4.36v-1.06c0-2.67-1.52-3.51-3.64-3.51c-2.46,0-4.53,0.64-6.23,1.4l-1.4-3.94
				c2.07-0.89,4.91-1.69,8.17-1.69c5.89,0,8.43,2.71,8.43,8v13.17H388.96z M387.39,89.52h-3.43c-2.29,0-3.35,1.1-3.35,2.67
				c0,1.91,1.02,3.05,3.09,3.05c1.31,0,2.67-0.59,3.68-1.4V89.52z"/>
			<path class="st2" d="M414.36,98.12l-3.85,0.68l-6.18-20.96h6.22l4.4,17.4h0.08l4.45-17.4h5.5l-6.39,21.26
				c-1.78,5.97-4.79,8.17-9.06,8.17c-2.33,0-4.95-1.31-5.84-2.08l1.74-3.77h0.51c0.17,0.13,1.91,1.48,3.85,1.48
				c2.2,0,3.64-1.52,4.4-4.19L414.36,98.12z"/>
			<path class="st2" d="M244.86,140.28h-5.42l7.75-28.58h9.23l7.49,28.58h-6.22l-1.48-6.44h-9.82L244.86,140.28z M250.53,116.56
				l-3.13,12.79h7.79l-2.92-12.79H250.53z"/>
			<path class="st2" d="M283.27,138.88c-1.19,0.64-3.98,1.82-7.11,1.82c-6.18,0-9.91-3.51-9.91-10.8c0-6.78,3.73-10.8,9.87-10.8
				c2.75,0,5.12,0.55,7.11,1.69l-1.44,3.77c-1.48-0.89-3.39-1.27-5.21-1.27c-2.88,0-4.7,1.95-4.7,6.61c0,4.7,1.74,6.61,4.74,6.61
				c2.16,0,4.28-0.8,5.63-1.57L283.27,138.88z"/>
			<path class="st2" d="M301.22,140.28l-0.85-2.54c-0.97,1.27-3.18,2.96-6.48,2.96c-5.17,0-7.54-2.88-7.54-8.6v-12.58h5.51v12.62
				c0,3.18,1.14,4.32,3.64,4.32c1.44,0,2.75-0.55,3.73-1.23v-15.71h5.63v20.75H301.22z"/>
			<path class="st2" d="M310.96,140.28v-16.77l-2.41-0.51v-3.47h7.92v20.75H310.96z M310.79,111.06h5.59v5.04h-5.59V111.06z"/>
			<path class="st2" d="M337.8,138.88c-1.19,0.64-3.98,1.82-7.11,1.82c-6.18,0-9.91-3.51-9.91-10.8c0-6.78,3.73-10.8,9.87-10.8
				c2.75,0,5.12,0.55,7.11,1.69l-1.44,3.77c-1.48-0.89-3.39-1.27-5.21-1.27c-2.88,0-4.7,1.95-4.7,6.61c0,4.7,1.74,6.61,4.74,6.61
				c2.16,0,4.28-0.8,5.63-1.57L337.8,138.88z"/>
			<path class="st2" d="M355.76,140.28l-0.85-2.54c-0.97,1.27-3.18,2.96-6.48,2.96c-5.17,0-7.54-2.88-7.54-8.6v-12.58h5.5v12.62
				c0,3.18,1.14,4.32,3.64,4.32c1.44,0,2.75-0.55,3.73-1.23v-15.71h5.63v20.75H355.76z"/>
			<path class="st2" d="M363.84,134.77v-23.71h5.46v23.42c0,1.74,1.06,1.99,3.34,1.99v3.9c0,0-1.61,0.34-3.05,0.34
				C365.37,140.7,363.84,138.46,363.84,134.77z"/>
			<path class="st2" d="M383.7,140.7c-3.68,0-6.1-1.74-6.1-6.94v-10.29h-3.09v-3.94h3.09v-3.6l5.46-1.78v5.38h5.55v3.94h-5.55v10.16
				c0,1.44,0.72,2.37,2.2,2.37c1.14,0,2.33-0.34,3.18-0.76l0.85,4.07C388.07,140.02,385.91,140.7,383.7,140.7z"/>
			<path class="st2" d="M407.12,140.28l-0.85-2.54c-0.97,1.27-3.18,2.96-6.48,2.96c-5.17,0-7.54-2.88-7.54-8.6v-12.58h5.5v12.62
				c0,3.18,1.14,4.32,3.64,4.32c1.44,0,2.75-0.55,3.73-1.23v-15.71h5.63v20.75H407.12z"/>
			<path class="st2" d="M426.94,124.14c-0.68-0.21-1.65-0.34-2.58-0.34c-1.48,0-2.79,0.64-3.73,1.4v15.08h-5.51v-20.75h3.85
				l0.59,2.79h0.13c0.64-1.48,2.5-3.18,4.95-3.18c1.1,0,1.95,0.17,2.41,0.3L426.94,124.14z"/>
			<path class="st2" d="M442.43,140.28l-0.76-2.46c-1.06,1.44-3.13,2.88-6.06,2.88c-4.15,0-6.94-2.67-6.94-6.65
				c0-3.85,2.84-6.14,7.83-6.14h4.36v-1.06c0-2.67-1.52-3.51-3.64-3.51c-2.46,0-4.53,0.63-6.23,1.4l-1.4-3.94
				c2.08-0.89,4.91-1.69,8.17-1.69c5.89,0,8.43,2.71,8.43,8v13.17H442.43z M440.87,131.22h-3.43c-2.29,0-3.35,1.1-3.35,2.67
				c0,1.91,1.02,3.05,3.09,3.05c1.31,0,2.67-0.59,3.68-1.4V131.22z"/>
		</g>
		<g>
			<g>
				<path class="st2" d="M255.85,443.26c-3.05,1.38-5.39,2.01-8.17,2.01c-6.73,0-10.18-4.69-10.18-11.86
					c0-6.86,3.45-11.42,10.48-11.42c3.42,0,5.66,0.83,7.44,1.98l-1.84,3.35c-1.27-0.87-3.25-1.44-5.53-1.44
					c-4.09,0-5.93,2.98-5.93,7.47c0,5.33,1.98,8.17,5.86,8.17c1.44,0,2.75-0.2,3.82-0.7v-4.19h-3.08l-0.27-3.25h7.4V443.26z"/>
			</g>
			<g>
				<path class="st2" d="M274.16,436.7c0,5.59-2.82,8.58-7.71,8.58c-4.92,0-7.7-2.95-7.7-8.58c0-4.83,2.68-8.51,7.7-8.51
					C271.41,428.19,274.16,431.88,274.16,436.7z M269.67,436.7c0-3.95-1.17-5.32-3.22-5.32c-2.04,0-3.18,1.4-3.18,5.32
					c0,3.82,1.04,5.36,3.18,5.36C268.6,442.06,269.67,440.62,269.67,436.7z"/>
			</g>
			<g>
				<path class="st2" d="M281.48,430.2c0.74-1,2.51-2.01,4.35-2.01c3.85,0,6.63,2.74,6.63,8.51c0,5.66-3.35,8.58-7.17,8.58
					c-2.34,0-3.71-0.91-4.75-2.31l-0.81,1.98h-2.34v-23.11h4.39v5.73L281.48,430.2z M281.78,440.38c0.67,0.91,1.81,1.67,2.98,1.67
					c1.91,0,3.32-1.41,3.32-5.36c0-3.92-1.24-5.29-3.24-5.29c-1.11,0-2.31,0.57-3.05,1.31V440.38z"/>
			</g>
			<g>
				<path class="st2" d="M297.1,444.94v-13.26l-1.9-0.4v-2.75h6.26v16.41H297.1z M296.97,421.83h4.42v3.98h-4.42V421.83z"/>
			</g>
			<g>
				<path class="st2" d="M309.19,437.91c0,2.61,1.48,4.05,4.22,4.05c1.68,0,3.38-0.63,4.83-1.37l0.84,3.08
					c-1.38,0.74-3.62,1.61-6.2,1.61c-5.06,0-8.07-3.15-8.07-8.58c0-5.06,2.44-8.51,7.7-8.51c4.96,0,6.9,3.68,6.9,7.8v1.91H309.19z
					 M312.27,431.41c-2.18,0-3.08,1.98-3.08,3.92h6C315.19,433.22,314.55,431.41,312.27,431.41z"/>
			</g>
			<g>
				<path class="st2" d="M332.02,432.18c-0.53-0.17-1.31-0.27-2.04-0.27c-1.17,0-2.21,0.5-2.95,1.1v11.92h-4.35v-16.41h3.04
					l0.47,2.21h0.1c0.5-1.18,1.98-2.51,3.92-2.51c0.87,0,1.54,0.13,1.91,0.24L332.02,432.18z"/>
			</g>
			<g>
				<path class="st2" d="M344.84,444.94v-9.75c0-2.48-0.94-3.66-2.94-3.66c-1.14,0-2.11,0.51-2.88,1.01v12.39h-4.39v-16.41h3.01
					l0.67,1.88c0.93-1.11,2.74-2.21,5.19-2.21c4.15,0,5.79,2.44,5.79,6.6v10.15H344.84z"/>
			</g>
			<g>
				<path class="st2" d="M367.6,436.7c0,5.59-2.81,8.58-7.7,8.58c-4.92,0-7.7-2.95-7.7-8.58c0-4.83,2.68-8.51,7.7-8.51
					C364.85,428.19,367.6,431.88,367.6,436.7z M363.11,436.7c0-3.95-1.17-5.32-3.22-5.32c-2.04,0-3.18,1.4-3.18,5.32
					c0,3.82,1.04,5.36,3.18,5.36C362.04,442.06,363.11,440.62,363.11,436.7z"/>
			</g>
			<g>
				<path class="st2" d="M388.85,429.8c-0.27-0.94-0.4-1.78-0.4-3.01v-4.96h4.35v23.11h-3.55l-0.5-1.81c-0.67,1-2.25,2.14-4.36,2.14
					c-3.72,0-6.7-2.68-6.7-8.54c0-5.43,3.08-8.54,7.07-8.54C386.54,428.19,387.95,428.8,388.85,429.8z M388.45,432.28
					c-0.67-0.41-1.71-0.81-2.98-0.81c-2.08,0-3.38,1.41-3.38,5.22c0,3.92,1.24,5.4,3.32,5.4c1.1,0,2.21-0.54,3.05-1.41V432.28z"/>
			</g>
			<g>
				<path class="st2" d="M400.49,437.91c0,2.61,1.48,4.05,4.22,4.05c1.67,0,3.38-0.63,4.82-1.37l0.84,3.08
					c-1.37,0.74-3.62,1.61-6.2,1.61c-5.06,0-8.07-3.15-8.07-8.58c0-5.06,2.44-8.51,7.7-8.51c4.95,0,6.9,3.68,6.9,7.8v1.91H400.49z
					 M403.58,431.41c-2.18,0-3.08,1.98-3.08,3.92h6C406.49,433.22,405.85,431.41,403.58,431.41z"/>
			</g>
			<g>
				<path class="st2" d="M430.65,445.28c-6.36,0-9.78-4.22-9.78-11.76c0-7.03,3.38-11.52,9.78-11.52c3.08,0,5.86,0.67,7.7,1.91
					l-1.67,3.55c-1.17-0.91-3.21-1.58-5.56-1.58c-3.75,0-5.63,2.65-5.63,7.61c0,5.23,1.88,7.9,5.56,7.9c2.21,0,4.42-0.94,5.96-2.07
					l1.41,3.55C436.18,444.4,433.63,445.28,430.65,445.28z"/>
			</g>
			<g>
				<path class="st2" d="M441.36,444.94v-23.11h4.38v6.06c0,1.14-0.23,2.04-0.43,2.55c0.9-1.14,2.41-2.24,4.72-2.24
					c4.69,0,6,2.44,6,6.6v10.15h-4.46v-9.78c0-2.34-0.94-3.62-2.91-3.62c-1.14,0-2.18,0.47-2.92,1.01v12.39H441.36z"/>
			</g>
			<g>
				<path class="st2" d="M460.91,444.94v-13.26l-1.91-0.4v-2.75h6.26v16.41H460.91z M460.77,421.83h4.42v3.98h-4.42V421.83z"/>
			</g>
			<g>
				<path class="st2" d="M469.27,440.58v-18.75h4.32v18.52c0,1.37,0.84,1.57,2.65,1.57v3.08c0,0-1.28,0.27-2.41,0.27
					C470.48,445.28,469.27,443.5,469.27,440.58z"/>
			</g>
			<g>
				<path class="st2" d="M482.83,437.91c0,2.61,1.47,4.05,4.22,4.05c1.67,0,3.38-0.63,4.82-1.37l0.84,3.08
					c-1.37,0.74-3.62,1.61-6.19,1.61c-5.06,0-8.07-3.15-8.07-8.58c0-5.06,2.45-8.51,7.7-8.51c4.96,0,6.9,3.68,6.9,7.8v1.91H482.83z
					 M485.91,431.41c-2.18,0-3.08,1.98-3.08,3.92h5.99C488.82,433.22,488.19,431.41,485.91,431.41z"/>
			</g>
		</g>
	</g>
</g>
</svg>
