<svg width="21" height="21" viewBox="0 0 21 21" fill="none" xmlns="http://www.w3.org/2000/svg">
<g clip-path="url(#clip0)">
<path d="M13.9887 15.2431C13.5211 14.7906 13.1048 14.382 12.6811 13.9807C8.69267 17.0017 3.87879 15.4766 1.70196 12.7037C-0.737852 9.60237 -0.533317 5.1803 2.17677 2.42928C5.0987 -0.53336 9.36471 -0.810652 12.6884 1.72146C15.4788 3.85222 17.0055 8.69023 13.9814 12.6818C14.3904 13.105 14.7922 13.5209 15.2524 13.9879C15.4496 13.769 15.6249 13.5355 15.8368 13.3385C16.2532 12.9518 16.728 12.9299 17.1078 13.3093C18.1524 14.3455 19.2189 15.3671 20.2051 16.4544C21.1182 17.4614 21.0086 19.0376 20.0517 19.9935C19.0436 21.0078 17.4877 21.1391 16.4577 20.2051C15.3693 19.22 14.3466 18.1546 13.3093 17.1111C12.9295 16.7244 12.9514 16.2501 13.3385 15.8414C13.5285 15.6225 13.7622 15.4474 13.9887 15.2431ZM13.8864 7.86565C13.9156 4.53815 11.2347 1.83091 7.88183 1.80902C4.52892 1.77983 1.82614 4.43599 1.78961 7.77079C1.75309 11.1494 4.41935 13.8639 7.80148 13.8931C11.1471 13.915 13.8572 11.2296 13.8864 7.86565ZM15.2013 16.5201C15.9537 17.2863 16.7134 18.0816 17.5023 18.8551C17.8675 19.2127 18.4154 19.1616 18.7879 18.8041C19.1605 18.4465 19.2262 17.9138 18.861 17.5344C18.0867 16.7317 17.2758 15.9801 16.5015 15.2285C16.0778 15.6444 15.6322 16.0895 15.2013 16.5201Z" fill="white"/>
</g>
<defs>
<clipPath id="clip0">
<rect width="20.8333" height="20.8333" fill="white"/>
</clipPath>
</defs>
</svg>
